<svg xmlns="http://www.w3.org/2000/svg" xmlns:xlink="http://www.w3.org/1999/xlink" contentStyleType="text/css" data-diagram-type="CLASS" height="874px" preserveAspectRatio="none" style="width:2715px;height:874px;background:#FFFFFF;" version="1.1" viewBox="0 0 2715 874" width="2715px" zoomAndPan="magnify"><title>&#1048;&#1085;&#1090;&#1077;&#1088;&#1087;&#1088;&#1077;&#1090;&#1072;&#1090;&#1086;&#1088; &#1082;&#1086;&#1084;&#1072;&#1085;&#1076;&#1085;&#1086;&#1081; &#1089;&#1090;&#1088;&#1086;&#1082;&#1080; &#8212; &#1082;&#1083;&#1102;&#1095;&#1077;&#1074;&#1099;&#1077; &#1082;&#1083;&#1072;&#1089;&#1089;&#1099; (&#1087;&#1086;&#1076;&#1089;&#1090;&#1072;&#1085;&#1086;&#1074;&#1082;&#1072; &#1076;&#1086; &#1090;&#1086;&#1082;&#1077;&#1085;&#1080;&#1079;&#1072;&#1094;&#1080;&#1080;)</title><defs/><g><g class="title" data-source-line="1"><text fill="#000000" font-family="sans-serif" font-size="14" font-weight="bold" lengthAdjust="spacing" textLength="704.9902" x="998.2813" y="22.9951">&#1048;&#1085;&#1090;&#1077;&#1088;&#1087;&#1088;&#1077;&#1090;&#1072;&#1090;&#1086;&#1088; &#1082;&#1086;&#1084;&#1072;&#1085;&#1076;&#1085;&#1086;&#1081; &#1089;&#1090;&#1088;&#1086;&#1082;&#1080; &#8212; &#1082;&#1083;&#1102;&#1095;&#1077;&#1074;&#1099;&#1077; &#1082;&#1083;&#1072;&#1089;&#1089;&#1099; (&#1087;&#1086;&#1076;&#1089;&#1090;&#1072;&#1085;&#1086;&#1074;&#1082;&#1072; &#1076;&#1086; &#1090;&#1086;&#1082;&#1077;&#1085;&#1080;&#1079;&#1072;&#1094;&#1080;&#1080;)</text></g><!--class Shell--><g class="entity" data-entity="Shell" data-source-line="5" data-uid="ent0002" id="entity_Shell"><rect fill="#F1F1F1" height="162.0781" rx="2.5" ry="2.5" style="stroke:#181818;stroke-width:0.5;" width="191.3135" x="668" y="44.2969"/><ellipse cx="742.3306" cy="60.2969" fill="#ADD1B2" rx="11" ry="11" style="stroke:#181818;stroke-width:1;"/><path d="M745.2993,65.9375 Q744.7212,66.2344 744.0806,66.375 Q743.4399,66.5313 742.7368,66.5313 Q740.2368,66.5313 738.9087,64.8906 Q737.5962,63.2344 737.5962,60.1094 Q737.5962,56.9844 738.9087,55.3281 Q740.2368,53.6719 742.7368,53.6719 Q743.4399,53.6719 744.0806,53.8281 Q744.7368,53.9844 745.2993,54.2813 L745.2993,57 Q744.6743,56.4219 744.0806,56.1563 Q743.4868,55.875 742.8618,55.875 Q741.5181,55.875 740.8306,56.9531 Q740.1431,58.0156 740.1431,60.1094 Q740.1431,62.2031 740.8306,63.2813 Q741.5181,64.3438 742.8618,64.3438 Q743.4868,64.3438 744.0806,64.0781 Q744.6743,63.7969 745.2993,63.2188 L745.2993,65.9375 Z " fill="#000000"/><text fill="#000000" font-family="sans-serif" font-size="14" lengthAdjust="spacing" textLength="34.1523" x="762.8306" y="65.1436">Shell</text><line style="stroke:#181818;stroke-width:0.5;" x1="669" x2="858.3135" y1="76.2969" y2="76.2969"/><text fill="#000000" font-family="sans-serif" font-size="14" lengthAdjust="spacing" textLength="124.9746" x="674" y="93.292">-Environment env</text><text fill="#000000" font-family="sans-serif" font-size="14" lengthAdjust="spacing" textLength="142.7207" x="674" y="109.5889">-Expander expander</text><text fill="#000000" font-family="sans-serif" font-size="14" lengthAdjust="spacing" textLength="83.7266" x="674" y="125.8857">-Lexer lexer</text><text fill="#000000" font-family="sans-serif" font-size="14" lengthAdjust="spacing" textLength="98.8271" x="674" y="142.1826">-Parser parser</text><text fill="#000000" font-family="sans-serif" font-size="14" lengthAdjust="spacing" textLength="133.5195" x="674" y="158.4795">-Executor executor</text><line style="stroke:#181818;stroke-width:0.5;" x1="669" x2="858.3135" y1="165.7813" y2="165.7813"/><text fill="#000000" font-family="sans-serif" font-size="14" lengthAdjust="spacing" textLength="68.8584" x="674" y="182.7764">+int run()</text><text fill="#000000" font-family="sans-serif" font-size="14" lengthAdjust="spacing" textLength="179.3135" x="674" y="199.0732">+void runLine(string line)</text></g><!--class Expander--><g class="entity" data-entity="Expander" data-source-line="16" data-uid="ent0003" id="entity_Expander"><rect fill="#F1F1F1" height="80.5938" rx="2.5" ry="2.5" style="stroke:#181818;stroke-width:0.5;" width="389.0156" x="321" y="291.2969"/><ellipse cx="477.895" cy="307.2969" fill="#ADD1B2" rx="11" ry="11" style="stroke:#181818;stroke-width:1;"/><path d="M480.8638,312.9375 Q480.2856,313.2344 479.645,313.375 Q479.0044,313.5313 478.3013,313.5313 Q475.8013,313.5313 474.4731,311.8906 Q473.1606,310.2344 473.1606,307.1094 Q473.1606,303.9844 474.4731,302.3281 Q475.8013,300.6719 478.3013,300.6719 Q479.0044,300.6719 479.645,300.8281 Q480.3013,300.9844 480.8638,301.2813 L480.8638,304 Q480.2388,303.4219 479.645,303.1563 Q479.0513,302.875 478.4263,302.875 Q477.0825,302.875 476.395,303.9531 Q475.7075,305.0156 475.7075,307.1094 Q475.7075,309.2031 476.395,310.2813 Q477.0825,311.3438 478.4263,311.3438 Q479.0513,311.3438 479.645,311.0781 Q480.2388,310.7969 480.8638,310.2188 L480.8638,312.9375 Z " fill="#000000"/><text fill="#000000" font-family="sans-serif" font-size="14" lengthAdjust="spacing" textLength="66.7256" x="498.395" y="312.1436">Expander</text><line style="stroke:#181818;stroke-width:0.5;" x1="322" x2="709.0156" y1="323.2969" y2="323.2969"/><line style="stroke:#181818;stroke-width:0.5;" x1="322" x2="709.0156" y1="331.2969" y2="331.2969"/><text fill="#000000" font-family="sans-serif" font-size="14" lengthAdjust="spacing" textLength="377.0156" x="327" y="348.292">+string expandLine(string rawLine, Environment env)</text><text fill="#000000" font-family="sans-serif" font-size="14" lengthAdjust="spacing" textLength="349.8154" x="327" y="364.5889">-string expandVar(string name, Environment env)</text></g><g class="entity" data-entity="GMN4" data-source-line="22" data-uid="ent0005" id="entity_GMN4"><path d="M816.5,266.2969 L816.5,327.7969 L710.07,331.7969 L816.5,335.7969 L816.5,397.3594 A0,0 0 0 0 816.5,397.3594 L1264.7354,397.3594 A0,0 0 0 0 1264.7354,397.3594 L1264.7354,276.2969 L1254.7354,266.2969 L816.5,266.2969 A0,0 0 0 0 816.5,266.2969" fill="#FEFFDD" style="stroke:#181818;stroke-width:0.5;"/><path d="M1254.7354,266.2969 L1254.7354,276.2969 L1264.7354,276.2969 L1254.7354,266.2969" fill="#FEFFDD" style="stroke:#181818;stroke-width:0.5;"/><text fill="#000000" font-family="sans-serif" font-size="13" lengthAdjust="spacing" textLength="427.2354" x="822.5" y="283.3638">expandLine &#1074;&#1099;&#1087;&#1086;&#1083;&#1085;&#1103;&#1077;&#1090; &#1087;&#1086;&#1076;&#1089;&#1090;&#1072;&#1085;&#1086;&#1074;&#1082;&#1080; $NAME &#1089; &#1091;&#1095;&#1105;&#1090;&#1086;&#1084; &#1082;&#1072;&#1074;&#1099;&#1095;&#1077;&#1082;:</text><text fill="#000000" font-family="sans-serif" font-size="13" lengthAdjust="spacing" textLength="160.5449" x="822.5" y="298.4966">- &#1074; '...' &#1087;&#1086;&#1076;&#1089;&#1090;&#1072;&#1085;&#1086;&#1074;&#1086;&#1082; &#1085;&#1077;&#1090;</text><text fill="#000000" font-family="sans-serif" font-size="13" lengthAdjust="spacing" textLength="172.1611" x="822.5" y="313.6294">- &#1074; "..." &#1087;&#1086;&#1076;&#1089;&#1090;&#1072;&#1085;&#1086;&#1074;&#1082;&#1080; &#1077;&#1089;&#1090;&#1100;</text><text fill="#000000" font-family="sans-serif" font-size="13" lengthAdjust="spacing" textLength="221.5776" x="822.5" y="328.7622">- &#1074;&#1085;&#1077; &#1082;&#1072;&#1074;&#1099;&#1095;&#1077;&#1082; &#1087;&#1086;&#1076;&#1089;&#1090;&#1072;&#1085;&#1086;&#1074;&#1082;&#1080; &#1077;&#1089;&#1090;&#1100;</text><text fill="#000000" font-family="sans-serif" font-size="13" lengthAdjust="spacing" textLength="4.1323" x="822.5" y="343.895">&#160;</text><text fill="#000000" font-family="sans-serif" font-size="13" lengthAdjust="spacing" textLength="306.1094" x="822.5" y="359.0278">&#1045;&#1089;&#1083;&#1080; &#1079;&#1085;&#1072;&#1095;&#1077;&#1085;&#1080;&#1077; &#1089;&#1086;&#1076;&#1077;&#1088;&#1078;&#1080;&#1090; &#1087;&#1088;&#1086;&#1073;&#1077;&#1083;&#1099;, Expander</text><text fill="#000000" font-family="sans-serif" font-size="13" lengthAdjust="spacing" textLength="321.8008" x="822.5" y="374.1606">&#1086;&#1073;&#1086;&#1088;&#1072;&#1095;&#1080;&#1074;&#1072;&#1077;&#1090; &#1074;&#1089;&#1090;&#1072;&#1074;&#1082;&#1091; &#1089;&#1083;&#1091;&#1078;&#1077;&#1073;&#1085;&#1099;&#1084;&#1080; &#1084;&#1072;&#1088;&#1082;&#1077;&#1088;&#1072;&#1084;&#1080;,</text><text fill="#000000" font-family="sans-serif" font-size="13" lengthAdjust="spacing" textLength="376.4287" x="822.5" y="389.2935">&#1095;&#1090;&#1086;&#1073;&#1099; Lexer &#1085;&#1077; &#1088;&#1072;&#1079;&#1076;&#1077;&#1083;&#1080;&#1083; &#1077;&#1105; &#1085;&#1072; &#1085;&#1077;&#1089;&#1082;&#1086;&#1083;&#1100;&#1082;&#1086; &#1072;&#1088;&#1075;&#1091;&#1084;&#1077;&#1085;&#1090;&#1086;&#1074;.</text></g><!--class Lexer--><g class="entity" data-entity="Lexer" data-source-line="33" data-uid="ent0007" id="entity_Lexer"><rect fill="#F1F1F1" height="64.2969" rx="2.5" ry="2.5" style="stroke:#181818;stroke-width:0.5;" width="279.0869" x="7" y="299.7969"/><ellipse cx="122.7598" cy="315.7969" fill="#ADD1B2" rx="11" ry="11" style="stroke:#181818;stroke-width:1;"/><path d="M125.7285,321.4375 Q125.1504,321.7344 124.5098,321.875 Q123.8691,322.0313 123.166,322.0313 Q120.666,322.0313 119.3379,320.3906 Q118.0254,318.7344 118.0254,315.6094 Q118.0254,312.4844 119.3379,310.8281 Q120.666,309.1719 123.166,309.1719 Q123.8691,309.1719 124.5098,309.3281 Q125.166,309.4844 125.7285,309.7813 L125.7285,312.5 Q125.1035,311.9219 124.5098,311.6563 Q123.916,311.375 123.291,311.375 Q121.9473,311.375 121.2598,312.4531 Q120.5723,313.5156 120.5723,315.6094 Q120.5723,317.7031 121.2598,318.7813 Q121.9473,319.8438 123.291,319.8438 Q123.916,319.8438 124.5098,319.5781 Q125.1035,319.2969 125.7285,318.7188 L125.7285,321.4375 Z " fill="#000000"/><text fill="#000000" font-family="sans-serif" font-size="14" lengthAdjust="spacing" textLength="39.0674" x="143.2598" y="320.6436">Lexer</text><line style="stroke:#181818;stroke-width:0.5;" x1="8" x2="285.0869" y1="331.7969" y2="331.7969"/><line style="stroke:#181818;stroke-width:0.5;" x1="8" x2="285.0869" y1="339.7969" y2="339.7969"/><text fill="#000000" font-family="sans-serif" font-size="14" lengthAdjust="spacing" textLength="267.0869" x="13" y="356.792">+vector&lt;Token&gt; tokenize(string line)</text></g><!--class TokenType--><g class="entity" data-entity="TokenType" data-source-line="37" data-uid="ent0008" id="entity_TokenType"><rect fill="#F1F1F1" height="96.8906" rx="2.5" ry="2.5" style="stroke:#181818;stroke-width:0.5;" width="109.0479" x="92" y="630.2969"/><ellipse cx="107" cy="646.2969" fill="#EB937F" rx="11" ry="11" style="stroke:#181818;stroke-width:1;"/><path d="M111.1094,652.2969 L103.3906,652.2969 L103.3906,639.9063 L111.1094,639.9063 L111.1094,642.0625 L105.8438,642.0625 L105.8438,644.7344 L110.6094,644.7344 L110.6094,646.8906 L105.8438,646.8906 L105.8438,650.1406 L111.1094,650.1406 L111.1094,652.2969 Z " fill="#000000"/><text fill="#000000" font-family="sans-serif" font-size="14" lengthAdjust="spacing" textLength="77.0479" x="121" y="651.1436">TokenType</text><line style="stroke:#181818;stroke-width:0.5;" x1="93" x2="200.0479" y1="662.2969" y2="662.2969"/><text fill="#000000" font-family="sans-serif" font-size="14" lengthAdjust="spacing" textLength="45.3701" x="98" y="679.292">WORD</text><text fill="#000000" font-family="sans-serif" font-size="14" lengthAdjust="spacing" textLength="29.8594" x="98" y="695.5889">PIPE</text><text fill="#000000" font-family="sans-serif" font-size="14" lengthAdjust="spacing" textLength="27.665" x="98" y="711.8857">EOL</text><line style="stroke:#181818;stroke-width:0.5;" x1="93" x2="200.0479" y1="719.1875" y2="719.1875"/></g><!--class Token--><g class="entity" data-entity="Token" data-source-line="43" data-uid="ent0009" id="entity_Token"><rect fill="#F1F1F1" height="80.5938" rx="2.5" ry="2.5" style="stroke:#181818;stroke-width:0.5;" width="136.5029" x="78" y="473.2969"/><ellipse cx="120.8064" cy="489.2969" fill="#ADD1B2" rx="11" ry="11" style="stroke:#181818;stroke-width:1;"/><path d="M123.7751,494.9375 Q123.197,495.2344 122.5564,495.375 Q121.9158,495.5313 121.2126,495.5313 Q118.7126,495.5313 117.3845,493.8906 Q116.072,492.2344 116.072,489.1094 Q116.072,485.9844 117.3845,484.3281 Q118.7126,482.6719 121.2126,482.6719 Q121.9158,482.6719 122.5564,482.8281 Q123.2126,482.9844 123.7751,483.2813 L123.7751,486 Q123.1501,485.4219 122.5564,485.1563 Q121.9626,484.875 121.3376,484.875 Q119.9939,484.875 119.3064,485.9531 Q118.6189,487.0156 118.6189,489.1094 Q118.6189,491.2031 119.3064,492.2813 Q119.9939,493.3438 121.3376,493.3438 Q121.9626,493.3438 122.5564,493.0781 Q123.1501,492.7969 123.7751,492.2188 L123.7751,494.9375 Z " fill="#000000"/><text fill="#000000" font-family="sans-serif" font-size="14" lengthAdjust="spacing" textLength="42.7109" x="140.9856" y="494.1436">Token</text><line style="stroke:#181818;stroke-width:0.5;" x1="79" x2="213.5029" y1="505.2969" y2="505.2969"/><text fill="#000000" font-family="sans-serif" font-size="14" lengthAdjust="spacing" textLength="124.5029" x="84" y="522.292">+TokenType type</text><text fill="#000000" font-family="sans-serif" font-size="14" lengthAdjust="spacing" textLength="84.2461" x="84" y="538.5889">+string text</text><line style="stroke:#181818;stroke-width:0.5;" x1="79" x2="213.5029" y1="545.8906" y2="545.8906"/></g><!--class Parser--><g class="entity" data-entity="Parser" data-source-line="48" data-uid="ent0010" id="entity_Parser"><rect fill="#F1F1F1" height="64.2969" rx="2.5" ry="2.5" style="stroke:#181818;stroke-width:0.5;" width="331.8398" x="1299.5" y="299.7969"/><ellipse cx="1438.9497" cy="315.7969" fill="#ADD1B2" rx="11" ry="11" style="stroke:#181818;stroke-width:1;"/><path d="M1441.9185,321.4375 Q1441.3403,321.7344 1440.6997,321.875 Q1440.0591,322.0313 1439.356,322.0313 Q1436.856,322.0313 1435.5278,320.3906 Q1434.2153,318.7344 1434.2153,315.6094 Q1434.2153,312.4844 1435.5278,310.8281 Q1436.856,309.1719 1439.356,309.1719 Q1440.0591,309.1719 1440.6997,309.3281 Q1441.356,309.4844 1441.9185,309.7813 L1441.9185,312.5 Q1441.2935,311.9219 1440.6997,311.6563 Q1440.106,311.375 1439.481,311.375 Q1438.1372,311.375 1437.4497,312.4531 Q1436.7622,313.5156 1436.7622,315.6094 Q1436.7622,317.7031 1437.4497,318.7813 Q1438.1372,319.8438 1439.481,319.8438 Q1440.106,319.8438 1440.6997,319.5781 Q1441.2935,319.2969 1441.9185,318.7188 L1441.9185,321.4375 Z " fill="#000000"/><text fill="#000000" font-family="sans-serif" font-size="14" lengthAdjust="spacing" textLength="44.4404" x="1459.4497" y="320.6436">Parser</text><line style="stroke:#181818;stroke-width:0.5;" x1="1300.5" x2="1630.3398" y1="331.7969" y2="331.7969"/><line style="stroke:#181818;stroke-width:0.5;" x1="1300.5" x2="1630.3398" y1="339.7969" y2="339.7969"/><text fill="#000000" font-family="sans-serif" font-size="14" lengthAdjust="spacing" textLength="319.8398" x="1305.5" y="356.792">+PipelineNode parse(vector&lt;Token&gt; tokens)</text></g><!--class PipelineNode--><g class="entity" data-entity="PipelineNode" data-source-line="52" data-uid="ent0011" id="entity_PipelineNode"><rect fill="#F1F1F1" height="64.2969" rx="2.5" ry="2.5" style="stroke:#181818;stroke-width:0.5;" width="281.7119" x="1250.5" y="481.7969"/><ellipse cx="1341.2881" cy="497.7969" fill="#ADD1B2" rx="11" ry="11" style="stroke:#181818;stroke-width:1;"/><path d="M1344.2568,503.4375 Q1343.6787,503.7344 1343.0381,503.875 Q1342.3975,504.0313 1341.6943,504.0313 Q1339.1943,504.0313 1337.8662,502.3906 Q1336.5537,500.7344 1336.5537,497.6094 Q1336.5537,494.4844 1337.8662,492.8281 Q1339.1943,491.1719 1341.6943,491.1719 Q1342.3975,491.1719 1343.0381,491.3281 Q1343.6943,491.4844 1344.2568,491.7813 L1344.2568,494.5 Q1343.6318,493.9219 1343.0381,493.6563 Q1342.4443,493.375 1341.8193,493.375 Q1340.4756,493.375 1339.7881,494.4531 Q1339.1006,495.5156 1339.1006,497.6094 Q1339.1006,499.7031 1339.7881,500.7813 Q1340.4756,501.8438 1341.8193,501.8438 Q1342.4443,501.8438 1343.0381,501.5781 Q1343.6318,501.2969 1344.2568,500.7188 L1344.2568,503.4375 Z " fill="#000000"/><text fill="#000000" font-family="sans-serif" font-size="14" lengthAdjust="spacing" textLength="91.6357" x="1361.7881" y="502.6436">PipelineNode</text><line style="stroke:#181818;stroke-width:0.5;" x1="1251.5" x2="1531.2119" y1="513.7969" y2="513.7969"/><text fill="#000000" font-family="sans-serif" font-size="14" lengthAdjust="spacing" textLength="269.7119" x="1256.5" y="530.792">+vector&lt;CommandNode&gt; commands</text><line style="stroke:#181818;stroke-width:0.5;" x1="1251.5" x2="1531.2119" y1="538.0938" y2="538.0938"/></g><!--class CommandNode--><g class="entity" data-entity="CommandNode" data-source-line="56" data-uid="ent0012" id="entity_CommandNode"><rect fill="#F1F1F1" height="80.5938" rx="2.5" ry="2.5" style="stroke:#181818;stroke-width:0.5;" width="303.7373" x="1239.5" y="638.2969"/><ellipse cx="1332.8721" cy="654.2969" fill="#ADD1B2" rx="11" ry="11" style="stroke:#181818;stroke-width:1;"/><path d="M1335.8408,659.9375 Q1335.2627,660.2344 1334.6221,660.375 Q1333.9814,660.5313 1333.2783,660.5313 Q1330.7783,660.5313 1329.4502,658.8906 Q1328.1377,657.2344 1328.1377,654.1094 Q1328.1377,650.9844 1329.4502,649.3281 Q1330.7783,647.6719 1333.2783,647.6719 Q1333.9814,647.6719 1334.6221,647.8281 Q1335.2783,647.9844 1335.8408,648.2813 L1335.8408,651 Q1335.2158,650.4219 1334.6221,650.1563 Q1334.0283,649.875 1333.4033,649.875 Q1332.0596,649.875 1331.3721,650.9531 Q1330.6846,652.0156 1330.6846,654.1094 Q1330.6846,656.2031 1331.3721,657.2813 Q1332.0596,658.3438 1333.4033,658.3438 Q1334.0283,658.3438 1334.6221,658.0781 Q1335.2158,657.7969 1335.8408,657.2188 L1335.8408,659.9375 Z " fill="#000000"/><text fill="#000000" font-family="sans-serif" font-size="14" lengthAdjust="spacing" textLength="108.4932" x="1353.3721" y="659.1436">CommandNode</text><line style="stroke:#181818;stroke-width:0.5;" x1="1240.5" x2="1542.2373" y1="670.2969" y2="670.2969"/><text fill="#000000" font-family="sans-serif" font-size="14" lengthAdjust="spacing" textLength="291.7373" x="1245.5" y="687.292">+vector&lt;AssignmentNode&gt; assignments</text><text fill="#000000" font-family="sans-serif" font-size="14" lengthAdjust="spacing" textLength="166.1885" x="1245.5" y="703.5889">+vector&lt;string&gt; words</text><line style="stroke:#181818;stroke-width:0.5;" x1="1240.5" x2="1542.2373" y1="710.8906" y2="710.8906"/></g><!--class AssignmentNode--><g class="entity" data-entity="AssignmentNode" data-source-line="61" data-uid="ent0013" id="entity_AssignmentNode"><rect fill="#F1F1F1" height="80.5938" rx="2.5" ry="2.5" style="stroke:#181818;stroke-width:0.5;" width="150.9658" x="1316" y="787.2969"/><ellipse cx="1331" cy="803.2969" fill="#ADD1B2" rx="11" ry="11" style="stroke:#181818;stroke-width:1;"/><path d="M1333.9688,808.9375 Q1333.3906,809.2344 1332.75,809.375 Q1332.1094,809.5313 1331.4063,809.5313 Q1328.9063,809.5313 1327.5781,807.8906 Q1326.2656,806.2344 1326.2656,803.1094 Q1326.2656,799.9844 1327.5781,798.3281 Q1328.9063,796.6719 1331.4063,796.6719 Q1332.1094,796.6719 1332.75,796.8281 Q1333.4063,796.9844 1333.9688,797.2813 L1333.9688,800 Q1333.3438,799.4219 1332.75,799.1563 Q1332.1563,798.875 1331.5313,798.875 Q1330.1875,798.875 1329.5,799.9531 Q1328.8125,801.0156 1328.8125,803.1094 Q1328.8125,805.2031 1329.5,806.2813 Q1330.1875,807.3438 1331.5313,807.3438 Q1332.1563,807.3438 1332.75,807.0781 Q1333.3438,806.7969 1333.9688,806.2188 L1333.9688,808.9375 Z " fill="#000000"/><text fill="#000000" font-family="sans-serif" font-size="14" lengthAdjust="spacing" textLength="118.9658" x="1345" y="808.1436">AssignmentNode</text><line style="stroke:#181818;stroke-width:0.5;" x1="1317" x2="1465.9658" y1="819.2969" y2="819.2969"/><text fill="#000000" font-family="sans-serif" font-size="14" lengthAdjust="spacing" textLength="96.0723" x="1322" y="836.292">+string name</text><text fill="#000000" font-family="sans-serif" font-size="14" lengthAdjust="spacing" textLength="94.6094" x="1322" y="852.5889">+string value</text><line style="stroke:#181818;stroke-width:0.5;" x1="1317" x2="1465.9658" y1="859.8906" y2="859.8906"/></g><!--class Environment--><g class="entity" data-entity="Environment" data-source-line="67" data-uid="ent0014" id="entity_Environment"><rect fill="#F1F1F1" height="113.1875" rx="2.5" ry="2.5" style="stroke:#181818;stroke-width:0.5;" width="309.1924" x="609" y="457.2969"/><ellipse cx="714.4956" cy="473.2969" fill="#ADD1B2" rx="11" ry="11" style="stroke:#181818;stroke-width:1;"/><path d="M717.4644,478.9375 Q716.8862,479.2344 716.2456,479.375 Q715.605,479.5313 714.9019,479.5313 Q712.4019,479.5313 711.0737,477.8906 Q709.7612,476.2344 709.7612,473.1094 Q709.7612,469.9844 711.0737,468.3281 Q712.4019,466.6719 714.9019,466.6719 Q715.605,466.6719 716.2456,466.8281 Q716.9019,466.9844 717.4644,467.2813 L717.4644,470 Q716.8394,469.4219 716.2456,469.1563 Q715.6519,468.875 715.0269,468.875 Q713.6831,468.875 712.9956,469.9531 Q712.3081,471.0156 712.3081,473.1094 Q712.3081,475.2031 712.9956,476.2813 Q713.6831,477.3438 715.0269,477.3438 Q715.6519,477.3438 716.2456,477.0781 Q716.8394,476.7969 717.4644,476.2188 L717.4644,478.9375 Z " fill="#000000"/><text fill="#000000" font-family="sans-serif" font-size="14" lengthAdjust="spacing" textLength="89.7012" x="734.9956" y="478.1436">Environment</text><line style="stroke:#181818;stroke-width:0.5;" x1="610" x2="917.1924" y1="489.2969" y2="489.2969"/><text fill="#000000" font-family="sans-serif" font-size="14" lengthAdjust="spacing" textLength="178.8076" x="615" y="506.292">-map&lt;string,string&gt; vars</text><line style="stroke:#181818;stroke-width:0.5;" x1="610" x2="917.1924" y1="513.5938" y2="513.5938"/><text fill="#000000" font-family="sans-serif" font-size="14" lengthAdjust="spacing" textLength="254.249" x="615" y="530.5889">+void set(string name, string value)</text><text fill="#000000" font-family="sans-serif" font-size="14" lengthAdjust="spacing" textLength="297.1924" x="615" y="546.8857">+optional&lt;string&gt; get(string name) const</text><text fill="#000000" font-family="sans-serif" font-size="14" lengthAdjust="spacing" textLength="272.7197" x="615" y="563.1826">+map&lt;string,string&gt; snapshot() const</text></g><!--class IShellCommand--><g class="entity" data-entity="IShellCommand" data-source-line="75" data-uid="ent0015" id="entity_IShellCommand"><rect fill="#F1F1F1" height="80.5938" rx="2.5" ry="2.5" style="stroke:#181818;stroke-width:0.5;" width="566.0527" x="2142.5" y="638.2969"/><ellipse cx="2366.1582" cy="654.2969" fill="#B4A7E5" rx="11" ry="11" style="stroke:#181818;stroke-width:1;"/><path d="M2362.0801,650.0625 L2362.0801,647.9063 L2369.4707,647.9063 L2369.4707,650.0625 L2367.002,650.0625 L2367.002,658.1406 L2369.4707,658.1406 L2369.4707,660.2969 L2362.0801,660.2969 L2362.0801,658.1406 L2364.5488,658.1406 L2364.5488,650.0625 L2362.0801,650.0625 Z " fill="#000000"/><text fill="#000000" font-family="sans-serif" font-size="14" font-style="italic" lengthAdjust="spacing" textLength="110.2363" x="2386.6582" y="659.1436">IShellCommand</text><line style="stroke:#181818;stroke-width:0.5;" x1="2143.5" x2="2707.5527" y1="670.2969" y2="670.2969"/><line style="stroke:#181818;stroke-width:0.5;" x1="2143.5" x2="2707.5527" y1="678.2969" y2="678.2969"/><text fill="#000000" font-family="sans-serif" font-size="14" lengthAdjust="spacing" textLength="149.3652" x="2148.5" y="695.292">+string name() const</text><text fill="#000000" font-family="sans-serif" font-size="14" lengthAdjust="spacing" textLength="554.0527" x="2148.5" y="711.5889">+int run(vector&lt;string&gt; argv, int inFd, int outFd, int errFd, Environment&amp; env)</text></g><!--class CommandRegistry--><g class="entity" data-entity="CommandRegistry" data-source-line="80" data-uid="ent0016" id="entity_CommandRegistry"><rect fill="#F1F1F1" height="96.8906" rx="2.5" ry="2.5" style="stroke:#181818;stroke-width:0.5;" width="438.4941" x="2206.5" y="465.2969"/><ellipse cx="2356.5488" cy="481.2969" fill="#ADD1B2" rx="11" ry="11" style="stroke:#181818;stroke-width:1;"/><path d="M2359.5176,486.9375 Q2358.9395,487.2344 2358.2988,487.375 Q2357.6582,487.5313 2356.9551,487.5313 Q2354.4551,487.5313 2353.127,485.8906 Q2351.8145,484.2344 2351.8145,481.1094 Q2351.8145,477.9844 2353.127,476.3281 Q2354.4551,474.6719 2356.9551,474.6719 Q2357.6582,474.6719 2358.2988,474.8281 Q2358.9551,474.9844 2359.5176,475.2813 L2359.5176,478 Q2358.8926,477.4219 2358.2988,477.1563 Q2357.7051,476.875 2357.0801,476.875 Q2355.7363,476.875 2355.0488,477.9531 Q2354.3613,479.0156 2354.3613,481.1094 Q2354.3613,483.2031 2355.0488,484.2813 Q2355.7363,485.3438 2357.0801,485.3438 Q2357.7051,485.3438 2358.2988,485.0781 Q2358.8926,484.7969 2359.5176,484.2188 L2359.5176,486.9375 Z " fill="#000000"/><text fill="#000000" font-family="sans-serif" font-size="14" lengthAdjust="spacing" textLength="129.8965" x="2377.0488" y="486.1436">CommandRegistry</text><line style="stroke:#181818;stroke-width:0.5;" x1="2207.5" x2="2643.9941" y1="497.2969" y2="497.2969"/><text fill="#000000" font-family="sans-serif" font-size="14" lengthAdjust="spacing" textLength="373.0781" x="2212.5" y="514.292">-map&lt;string, unique_ptr&lt;IShellCommand&gt;&gt; builtins</text><line style="stroke:#181818;stroke-width:0.5;" x1="2207.5" x2="2643.9941" y1="521.5938" y2="521.5938"/><text fill="#000000" font-family="sans-serif" font-size="14" lengthAdjust="spacing" textLength="426.4941" x="2212.5" y="538.5889">+void registerCommand(unique_ptr&lt;IShellCommand&gt; cmd)</text><text fill="#000000" font-family="sans-serif" font-size="14" lengthAdjust="spacing" textLength="297.6299" x="2212.5" y="554.8857">+IShellCommand* find(string name) const</text></g><!--class Executor--><g class="entity" data-entity="Executor" data-source-line="87" data-uid="ent0017" id="entity_Executor"><rect fill="#F1F1F1" height="96.8906" rx="2.5" ry="2.5" style="stroke:#181818;stroke-width:0.5;" width="404.9092" x="1667" y="283.2969"/><ellipse cx="1834.1421" cy="299.2969" fill="#ADD1B2" rx="11" ry="11" style="stroke:#181818;stroke-width:1;"/><path d="M1837.1108,304.9375 Q1836.5327,305.2344 1835.8921,305.375 Q1835.2515,305.5313 1834.5483,305.5313 Q1832.0483,305.5313 1830.7202,303.8906 Q1829.4077,302.2344 1829.4077,299.1094 Q1829.4077,295.9844 1830.7202,294.3281 Q1832.0483,292.6719 1834.5483,292.6719 Q1835.2515,292.6719 1835.8921,292.8281 Q1836.5483,292.9844 1837.1108,293.2813 L1837.1108,296 Q1836.4858,295.4219 1835.8921,295.1563 Q1835.2983,294.875 1834.6733,294.875 Q1833.3296,294.875 1832.6421,295.9531 Q1831.9546,297.0156 1831.9546,299.1094 Q1831.9546,301.2031 1832.6421,302.2813 Q1833.3296,303.3438 1834.6733,303.3438 Q1835.2983,303.3438 1835.8921,303.0781 Q1836.4858,302.7969 1837.1108,302.2188 L1837.1108,304.9375 Z " fill="#000000"/><text fill="#000000" font-family="sans-serif" font-size="14" lengthAdjust="spacing" textLength="62.125" x="1854.6421" y="304.1436">Executor</text><line style="stroke:#181818;stroke-width:0.5;" x1="1668" x2="2070.9092" y1="315.2969" y2="315.2969"/><text fill="#000000" font-family="sans-serif" font-size="14" lengthAdjust="spacing" textLength="204.2852" x="1673" y="332.292">-CommandRegistry&amp; registry</text><text fill="#000000" font-family="sans-serif" font-size="14" lengthAdjust="spacing" textLength="236.2705" x="1673" y="348.5889">-ExternalProgramRunner external</text><line style="stroke:#181818;stroke-width:0.5;" x1="1668" x2="2070.9092" y1="355.8906" y2="355.8906"/><text fill="#000000" font-family="sans-serif" font-size="14" lengthAdjust="spacing" textLength="392.9092" x="1673" y="372.8857">+int execute(PipelineNode pipeline, Environment&amp; env)</text></g><!--class ExternalProgramRunner--><g class="entity" data-entity="ExternalProgramRunner" data-source-line="93" data-uid="ent0018" id="entity_ExternalProgramRunner"><rect fill="#F1F1F1" height="64.2969" rx="2.5" ry="2.5" style="stroke:#181818;stroke-width:0.5;" width="603.3223" x="1568" y="481.7969"/><ellipse cx="1781.0762" cy="497.7969" fill="#ADD1B2" rx="11" ry="11" style="stroke:#181818;stroke-width:1;"/><path d="M1784.0449,503.4375 Q1783.4668,503.7344 1782.8262,503.875 Q1782.1855,504.0313 1781.4824,504.0313 Q1778.9824,504.0313 1777.6543,502.3906 Q1776.3418,500.7344 1776.3418,497.6094 Q1776.3418,494.4844 1777.6543,492.8281 Q1778.9824,491.1719 1781.4824,491.1719 Q1782.1855,491.1719 1782.8262,491.3281 Q1783.4824,491.4844 1784.0449,491.7813 L1784.0449,494.5 Q1783.4199,493.9219 1782.8262,493.6563 Q1782.2324,493.375 1781.6074,493.375 Q1780.2637,493.375 1779.5762,494.4531 Q1778.8887,495.5156 1778.8887,497.6094 Q1778.8887,499.7031 1779.5762,500.7813 Q1780.2637,501.8438 1781.6074,501.8438 Q1782.2324,501.8438 1782.8262,501.5781 Q1783.4199,501.2969 1784.0449,500.7188 L1784.0449,503.4375 Z " fill="#000000"/><text fill="#000000" font-family="sans-serif" font-size="14" lengthAdjust="spacing" textLength="168.6699" x="1801.5762" y="502.6436">ExternalProgramRunner</text><line style="stroke:#181818;stroke-width:0.5;" x1="1569" x2="2170.3223" y1="513.7969" y2="513.7969"/><line style="stroke:#181818;stroke-width:0.5;" x1="1569" x2="2170.3223" y1="521.7969" y2="521.7969"/><text fill="#000000" font-family="sans-serif" font-size="14" lengthAdjust="spacing" textLength="11.7305" x="1574" y="538.792">+</text><a href="noreturn" target="_top" title="noreturn" xlink:actuate="onRequest" xlink:href="noreturn" xlink:show="new" xlink:title="noreturn" xlink:type="simple"><text fill="#0000FF" font-family="sans-serif" font-size="14" lengthAdjust="spacing" text-decoration="underline" textLength="60.7988" x="1585.7305" y="538.792">noreturn</text></a><text fill="#000000" font-family="sans-serif" font-size="14" lengthAdjust="spacing" textLength="514.3428" x="1650.9795" y="538.792">void exec(string program, vector&lt;string&gt; argv, map&lt;string,string&gt; env)</text></g><g class="entity" data-entity="GMN34" data-source-line="116" data-uid="ent0035" id="entity_GMN34"><path d="M2255.5,800.2969 L2255.5,855.6953 A0,0 0 0 0 2255.5,855.6953 L2595.1143,855.6953 A0,0 0 0 0 2595.1143,855.6953 L2595.1143,810.2969 L2585.1143,800.2969 L2429.5,800.2969 L2425.5,719.5769 L2421.5,800.2969 L2255.5,800.2969 A0,0 0 0 0 2255.5,800.2969" fill="#FEFFDD" style="stroke:#181818;stroke-width:0.5;"/><path d="M2585.1143,800.2969 L2585.1143,810.2969 L2595.1143,810.2969 L2585.1143,800.2969" fill="#FEFFDD" style="stroke:#181818;stroke-width:0.5;"/><text fill="#000000" font-family="sans-serif" font-size="13" lengthAdjust="spacing" textLength="274.8535" x="2261.5" y="817.3638">&#1048;&#1089;&#1087;&#1086;&#1083;&#1100;&#1079;&#1091;&#1077;&#1084; fd (inFd/outFd/errFd), &#1095;&#1090;&#1086;&#1073;&#1099;:</text><text fill="#000000" font-family="sans-serif" font-size="13" lengthAdjust="spacing" textLength="259.397" x="2261.5" y="832.4966">- builtins &#1084;&#1086;&#1075;&#1083;&#1080; &#1088;&#1072;&#1073;&#1086;&#1090;&#1072;&#1090;&#1100; &#1074; &#1087;&#1072;&#1081;&#1087;&#1083;&#1072;&#1081;&#1085;&#1077;</text><text fill="#000000" font-family="sans-serif" font-size="13" lengthAdjust="spacing" textLength="318.6143" x="2261.5" y="847.6294">- Executor &#1084;&#1086;&#1075; &#1085;&#1072;&#1089;&#1090;&#1088;&#1072;&#1080;&#1074;&#1072;&#1090;&#1100; &#1087;&#1086;&#1090;&#1086;&#1082;&#1080; &#1095;&#1077;&#1088;&#1077;&#1079; dup2</text></g><!--link Shell to Expander--><g class="link" data-entity-1="Shell" data-entity-2="Expander" data-source-line="97" data-uid="lnk19" id="link_Shell_Expander"><path codeLine="97" d="M667.97,205.0669 C632.22,234.5469 597.7585,262.9589 568.1185,287.4089" fill="none" id="Shell-to-Expander" style="stroke:#181818;stroke-width:1;"/><polygon fill="#181818" points="563.49,291.2269,572.9781,288.5855,567.3471,288.0452,567.8874,282.4142,563.49,291.2269" style="stroke:#181818;stroke-width:1;"/></g><!--link Shell to Lexer--><g class="link" data-entity-1="Shell" data-entity-2="Lexer" data-source-line="98" data-uid="lnk20" id="link_Shell_Lexer"><path codeLine="98" d="M667.94,152.5369 C574.3,178.9069 427.93,221.9169 303.5,266.2969 C275.33,276.3469 250.357,286.2558 223.787,297.3458" fill="none" id="Shell-to-Lexer" style="stroke:#181818;stroke-width:1;"/><polygon fill="#181818" points="218.25,299.6569,228.0963,299.8816,222.8642,297.731,225.0148,292.4989,218.25,299.6569" style="stroke:#181818;stroke-width:1;"/></g><!--link Shell to Parser--><g class="link" data-entity-1="Shell" data-entity-2="Parser" data-source-line="99" data-uid="lnk21" id="link_Shell_Parser"><path codeLine="99" d="M859.1,149.8969 C963.5,176.1969 1135.35,220.9969 1281.5,266.2969 C1314.32,276.4669 1344.3862,286.7083 1375.5462,297.7783" fill="none" id="Shell-to-Parser" style="stroke:#181818;stroke-width:1;"/><polygon fill="#181818" points="1381.2,299.7869,1374.0583,293.0048,1376.4885,298.113,1371.3802,300.5432,1381.2,299.7869" style="stroke:#181818;stroke-width:1;"/></g><!--link Shell to Executor--><g class="link" data-entity-1="Shell" data-entity-2="Executor" data-source-line="100" data-uid="lnk22" id="link_Shell_Executor"><path codeLine="100" d="M859.2,137.3869 C1022.35,157.1869 1364.27,202.6069 1648.5,266.2969 C1670.44,271.2169 1687.6233,275.5012 1710.1033,281.6612" fill="none" id="Shell-to-Executor" style="stroke:#181818;stroke-width:1;"/><polygon fill="#181818" points="1715.89,283.2469,1708.2671,277.0106,1711.0678,281.9255,1706.1529,284.7262,1715.89,283.2469" style="stroke:#181818;stroke-width:1;"/></g><!--link Shell to Environment--><g class="link" data-entity-1="Shell" data-entity-2="Environment" data-source-line="101" data-uid="lnk23" id="link_Shell_Environment"><path codeLine="101" d="M763.5,206.3769 C763.5,281.3369 763.5,385.3669 763.5,451.1569" fill="none" id="Shell-to-Environment" style="stroke:#181818;stroke-width:1;"/><polygon fill="#181818" points="763.5,457.1569,767.5,448.1569,763.5,452.1569,759.5,448.1569,763.5,457.1569" style="stroke:#181818;stroke-width:1;"/></g><!--link Expander to Environment--><g class="link" data-entity-1="Expander" data-entity-2="Environment" data-source-line="103" data-uid="lnk24" id="link_Expander_Environment"><path codeLine="103" d="M569.92,372.2969 C604.14,397.1369 643.9645,426.0321 681.7645,453.4721" fill="none" id="Expander-to-Environment" style="stroke:#181818;stroke-width:1;"/><polygon fill="#181818" points="686.62,456.9969,681.6865,448.4727,682.5737,454.0596,676.9869,454.9468,686.62,456.9969" style="stroke:#181818;stroke-width:1;"/></g><!--link Lexer to Token--><g class="link" data-entity-1="Lexer" data-entity-2="Token" data-source-line="104" data-uid="lnk25" id="link_Lexer_Token"><path codeLine="104" d="M146.5,364.1469 C146.5,394.3669 146.5,434.2069 146.5,466.9869" fill="none" id="Lexer-to-Token" style="stroke:#181818;stroke-width:1;"/><polygon fill="#181818" points="146.5,472.9869,150.5,463.9869,146.5,467.9869,142.5,463.9869,146.5,472.9869" style="stroke:#181818;stroke-width:1;"/></g><!--link Token to TokenType--><g class="link" data-entity-1="Token" data-entity-2="TokenType" data-source-line="105" data-uid="lnk26" id="link_Token_TokenType"><path codeLine="105" d="M146.5,554.6669 C146.5,577.4769 146.5,600.2369 146.5,624.2169" fill="none" id="Token-to-TokenType" style="stroke:#181818;stroke-width:1;"/><polygon fill="#181818" points="146.5,630.2169,150.5,621.2169,146.5,625.2169,142.5,621.2169,146.5,630.2169" style="stroke:#181818;stroke-width:1;"/></g><!--link Parser to PipelineNode--><g class="link" data-entity-1="Parser" data-entity-2="PipelineNode" data-source-line="106" data-uid="lnk27" id="link_Parser_PipelineNode"><path codeLine="106" d="M1452.61,364.1469 C1439.07,397.0869 1420.1814,443.0376 1406.6514,475.9476" fill="none" id="Parser-to-PipelineNode" style="stroke:#181818;stroke-width:1;"/><polygon fill="#181818" points="1404.37,481.4969,1411.4917,474.6939,1406.2712,476.8724,1404.0926,471.6519,1404.37,481.4969" style="stroke:#181818;stroke-width:1;"/></g><!--link PipelineNode to CommandNode--><g class="link" data-entity-1="PipelineNode" data-entity-2="CommandNode" data-source-line="107" data-uid="lnk28" id="link_PipelineNode_CommandNode"><path codeLine="107" d="M1391.5,545.8369 C1391.5,572.0769 1391.5,603.8069 1391.5,632.2069" fill="none" id="PipelineNode-to-CommandNode" style="stroke:#181818;stroke-width:1;"/><polygon fill="#181818" points="1391.5,638.2069,1395.5,629.2069,1391.5,633.2069,1387.5,629.2069,1391.5,638.2069" style="stroke:#181818;stroke-width:1;"/></g><!--link CommandNode to AssignmentNode--><g class="link" data-entity-1="CommandNode" data-entity-2="AssignmentNode" data-source-line="108" data-uid="lnk29" id="link_CommandNode_AssignmentNode"><path codeLine="108" d="M1391.5,719.5769 C1391.5,740.5769 1391.5,760.2669 1391.5,781.2369" fill="none" id="CommandNode-to-AssignmentNode" style="stroke:#181818;stroke-width:1;"/><polygon fill="#181818" points="1391.5,787.2369,1395.5,778.2369,1391.5,782.2369,1387.5,778.2369,1391.5,787.2369" style="stroke:#181818;stroke-width:1;"/></g><!--link Executor to CommandRegistry--><g class="link" data-entity-1="Executor" data-entity-2="CommandRegistry" data-source-line="110" data-uid="lnk30" id="link_Executor_CommandRegistry"><path codeLine="110" d="M2016.31,380.3269 C2097.23,406.5169 2191.6716,437.0991 2272.6416,463.3091" fill="none" id="Executor-to-CommandRegistry" style="stroke:#181818;stroke-width:1;"/><polygon fill="#181818" points="2278.35,465.1569,2271.0193,458.5796,2273.593,463.617,2268.5556,466.1908,2278.35,465.1569" style="stroke:#181818;stroke-width:1;"/></g><!--link CommandRegistry to IShellCommand--><g class="link" data-entity-1="CommandRegistry" data-entity-2="IShellCommand" data-source-line="111" data-uid="lnk31" id="link_CommandRegistry_IShellCommand"><path codeLine="111" d="M2425.5,562.3769 C2425.5,586.4369 2425.5,609.2869 2425.5,632.1269" fill="none" id="CommandRegistry-to-IShellCommand" style="stroke:#181818;stroke-width:1;"/><polygon fill="#181818" points="2425.5,638.1269,2429.5,629.1269,2425.5,633.1269,2421.5,629.1269,2425.5,638.1269" style="stroke:#181818;stroke-width:1;"/></g><!--link Executor to ExternalProgramRunner--><g class="link" data-entity-1="Executor" data-entity-2="ExternalProgramRunner" data-source-line="112" data-uid="lnk32" id="link_Executor_ExternalProgramRunner"><path codeLine="112" d="M1869.5,380.5569 C1869.5,412.5369 1869.5,447.7069 1869.5,475.5569" fill="none" id="Executor-to-ExternalProgramRunner" style="stroke:#181818;stroke-width:1;"/><polygon fill="#181818" points="1869.5,481.5569,1873.5,472.5569,1869.5,476.5569,1865.5,472.5569,1869.5,481.5569" style="stroke:#181818;stroke-width:1;"/></g><!--link Executor to Environment--><g class="link" data-entity-1="Executor" data-entity-2="Environment" data-source-line="113" data-uid="lnk33" id="link_Executor_Environment"><path codeLine="113" d="M1718.11,380.3169 C1694.94,386.6169 1671.19,392.5369 1648.5,397.2969 C1578.79,411.9269 1158.6052,464.3953 924.0152,493.2153" fill="none" id="Executor-to-Environment" style="stroke:#181818;stroke-width:1;"/><polygon fill="#181818" points="918.06,493.9469,927.4806,496.8196,923.0227,493.3372,926.5051,488.8793,918.06,493.9469" style="stroke:#181818;stroke-width:1;"/></g><!--SRC=[XLRlQXj74Fz-Jp644akjR9T-BAd0j2uOt4GueVqGGZbBQ_c8j7VTsvFjX88TG_F1fYNGGXv3SQ9QiMpv5VPUeK_IcTcLj2jVMXlTtSxER_xj_5cTw9u0yzRSbA_Cg3msj_WRuVSGVzFo6CoLcPfhCpGtvWF-fkOZb2VbA-IQujOO_Zd-atWcvU_bQpCo5-MP6J419PpW_ndKp2toVY0KYvcQ2zmV0igR0cd1rGZfOtE9cD_mFQv7-VD4Ph6A-v3lnvtq895Ts8jxkV1sshquppUqLibkeSLMEvMFanS2lemYte77-wBNWvSHm2fioa6YKjaNKeEG0qixp6BP4Gg4-s3gjZX4Ke-Ul6x5AaT2nY-74-r2fuIp7qZz0XAKh0fPg_Dga2OTMcudKjHoD17jx-5tFVerYbRW6_w3bXAhh3nFKkc8plYvSIzPdXDXBVM5glY0berb3-jiQW3xCLOpb8pxLH2qJQPQW4gw-nhIlRaLqK8ny1dJaKumQVwWP87A4nx3PmytVjZ4T87oj7nTlk6plgRa698CpfUhhwDLb0WhQsjhArLoC3i0Fr6BPRo7ZFS-fH3PA3VFcPLGIyh-5nUPlyeJT0n9bxW_P1YbvWZT82ZNoDzcp4vp4Rn3ZabvrbZ4YebOEmmVeugX3TA5quiworEIDobFKTO8kMymfDUa5IiDWLUiPaYaHeIXey2zmrAokScEyVub6KJccWdvy8QsXZPS9roua_ASti1ItwEwQ_A7vLsiHK9sWCxRoqZKWFcnJabFUHAafDLkyt4WsfZu3vwapuLiWgONrjwTJ1Uow0CpFJdA16D_UhJp7RvQMwrDV6q-sYO-gu0PdO85IEF3hm4j3lK2uyhJWbf99aZtmxGZRCNMAWpDwnxSHmIkVPls-tYUjD64jbta2w2t7U8syZpfSarPQ3nVvpwRTQO91wdonOReiFYfQFtr8EuL8kWdVa67tSJRi0sn7sVEXiRCb046RD6ySg73Rk5hjKqkpJJshRWtTwOROkeODvbhvgtGbyiuo_TJNPln-Qwu-EOpFx2z2hKNjmLiSLzt-tSZLFErpfhoKj1ZrHqqU3EHttViLrhesQTGYZwzeDsVzyVWz7T4Dq6PHtTZ2eLCVYd4pvbM3mA3cqtOBPAUJgGNQyLoX78yjK-2eTtlsDW7zCzXBq5OHUY3xE1nLJ5ft3YpJYovTjyPfuxSx4CpySXRAktY3DuffEG1QgdpcDl9A6fXGRh5VqQsMe4zvQTFPQg4BfHyzim6ZlJCtCuieW6LXrsHVpF5zfwmkjfSjF05YPkUjxRz9i2uIu17MhWNHVD1lhnZsobHkJb5jllDrzJx8jVTMB4NoYY8A-rwxIZoMnFjXJs5B787xW5dnnqjPpRn1BaMmYkFQud5ZmPVBtPJhTC-tIz2oUOjZgrRDxOkSLgDyBgmru4QLUaw5-WwrsQz0OkfI3U8MKdH09sQzpp1UKBI8ERBR7bEjmUKFZGVyJdXDmxAoBlFMJ0FKNV77ThvRU6tBCjUU-bYG3TbSmcT8ljgFah_1G00]--></g></svg>