<svg xmlns="http://www.w3.org/2000/svg" xmlns:xlink="http://www.w3.org/1999/xlink" contentStyleType="text/css" data-diagram-type="DESCRIPTION" height="1145px" preserveAspectRatio="none" style="width:988px;height:1145px;background:#FFFFFF;" version="1.1" viewBox="0 0 988 1145" width="988px" zoomAndPan="magnify"><title>&#1076;&#1080;&#1072;&#1075;&#1088;&#1072;&#1084;&#1084;&#1072; &#1082;&#1086;&#1084;&#1087;&#1086;&#1085;&#1077;&#1085;&#1090;&#1086;&#1074;</title><defs/><g><g class="title" data-source-line="1"><text fill="#000000" font-family="sans-serif" font-size="14" font-weight="bold" lengthAdjust="spacing" textLength="199.8418" x="387.1392" y="22.9951">&#1076;&#1080;&#1072;&#1075;&#1088;&#1072;&#1084;&#1084;&#1072; &#1082;&#1086;&#1084;&#1087;&#1086;&#1085;&#1077;&#1085;&#1090;&#1086;&#1074;</text></g><!--cluster CLI--><g class="cluster" data-entity="CLI" data-source-line="5" data-uid="ent0002" id="cluster_CLI"><path d="M8.5,43.2969 L33.9043,43.2969 A3.75,3.75 0 0 1 36.4043,45.7969 L43.4043,65.5938 L614.5,65.5938 A2.5,2.5 0 0 1 617,68.0938 L617,1135.7969 A2.5,2.5 0 0 1 614.5,1138.2969 L8.5,1138.2969 A2.5,2.5 0 0 1 6,1135.7969 L6,45.7969 A2.5,2.5 0 0 1 8.5,43.2969" fill="none" style="stroke:#000000;stroke-width:1.5;"/><line style="stroke:#000000;stroke-width:1.5;" x1="6" x2="43.4043" y1="65.5938" y2="65.5938"/><text fill="#000000" font-family="sans-serif" font-size="14" font-weight="bold" lengthAdjust="spacing" textLength="24.4043" x="10" y="58.292">CLI</text></g><!--entity Shell--><g class="entity" data-entity="Shell" data-source-line="6" data-uid="ent0003" id="entity_Shell"><rect fill="#F1F1F1" height="36.2969" rx="2.5" ry="2.5" style="stroke:#181818;stroke-width:0.5;" width="41.7041" x="335" y="78.2969"/><text fill="#000000" font-family="sans-serif" font-size="14" lengthAdjust="spacing" textLength="21.7041" x="345" y="101.292">CLI</text></g><!--entity Tokenizer--><g class="entity" data-entity="Tokenizer" data-source-line="7" data-uid="ent0004" id="entity_Tokenizer"><rect fill="#F1F1F1" height="36.2969" rx="2.5" ry="2.5" style="stroke:#181818;stroke-width:0.5;" width="88.3184" x="252" y="253.7969"/><text fill="#000000" font-family="sans-serif" font-size="14" lengthAdjust="spacing" textLength="68.3184" x="262" y="276.792">Tokenizer</text></g><!--entity Parser--><g class="entity" data-entity="Parser" data-source-line="8" data-uid="ent0005" id="entity_Parser"><rect fill="#F1F1F1" height="36.2969" rx="2.5" ry="2.5" style="stroke:#181818;stroke-width:0.5;" width="64.4404" x="229" y="429.2969"/><text fill="#000000" font-family="sans-serif" font-size="14" lengthAdjust="spacing" textLength="44.4404" x="239" y="452.292">Parser</text></g><!--entity Expander--><g class="entity" data-entity="Expander" data-source-line="9" data-uid="ent0006" id="entity_Expander"><rect fill="#F1F1F1" height="36.2969" rx="2.5" ry="2.5" style="stroke:#181818;stroke-width:0.5;" width="86.7256" x="238.5" y="582.2969"/><text fill="#000000" font-family="sans-serif" font-size="14" lengthAdjust="spacing" textLength="66.7256" x="248.5" y="605.292">Expander</text></g><!--entity Executor--><g class="entity" data-entity="Executor" data-source-line="10" data-uid="ent0007" id="entity_Executor"><rect fill="#F1F1F1" height="36.2969" rx="2.5" ry="2.5" style="stroke:#181818;stroke-width:0.5;" width="82.125" x="227" y="797.7969"/><text fill="#000000" font-family="sans-serif" font-size="14" lengthAdjust="spacing" textLength="62.125" x="237" y="820.792">Executor</text></g><!--entity Env--><g class="entity" data-entity="Env" data-source-line="11" data-uid="ent0008" id="entity_Env"><rect fill="#F1F1F1" height="36.2969" rx="2.5" ry="2.5" style="stroke:#181818;stroke-width:0.5;" width="109.7012" x="491" y="973.2969"/><text fill="#000000" font-family="sans-serif" font-size="14" lengthAdjust="spacing" textLength="89.7012" x="501" y="996.292">Environment</text></g><!--entity Registry--><g class="entity" data-entity="Registry" data-source-line="12" data-uid="ent0009" id="entity_Registry"><rect fill="#F1F1F1" height="36.2969" rx="2.5" ry="2.5" style="stroke:#181818;stroke-width:0.5;" width="149.8965" x="22" y="973.2969"/><text fill="#000000" font-family="sans-serif" font-size="14" lengthAdjust="spacing" textLength="129.8965" x="32" y="996.292">CommandRegistry</text></g><!--entity Builtins--><g class="entity" data-entity="Builtins" data-source-line="13" data-uid="ent0010" id="entity_Builtins"><rect fill="#F1F1F1" height="36.2969" rx="2.5" ry="2.5" style="stroke:#181818;stroke-width:0.5;" width="71.8027" x="61" y="1086.2969"/><text fill="#000000" font-family="sans-serif" font-size="14" lengthAdjust="spacing" textLength="51.8027" x="71" y="1109.292">Builtins</text></g><!--entity External--><g class="entity" data-entity="External" data-source-line="14" data-uid="ent0011" id="entity_External"><rect fill="#F1F1F1" height="36.2969" rx="2.5" ry="2.5" style="stroke:#181818;stroke-width:0.5;" width="217.9619" x="207" y="973.2969"/><text fill="#000000" font-family="sans-serif" font-size="14" lengthAdjust="spacing" textLength="197.9619" x="217" y="996.292">&#1047;&#1072;&#1087;&#1091;&#1089;&#1082; &#1074;&#1085;&#1077;&#1096;&#1085;&#1080;&#1093; &#1087;&#1088;&#1086;&#1075;&#1088;&#1072;&#1084;&#1084;</text></g><g class="entity" data-entity="GMN22" data-source-line="31" data-uid="ent0023" id="entity_GMN22"><path d="M633.5,191.2969 L633.5,267.7969 L340.15,271.7969 L633.5,275.7969 L633.5,352.625 A0,0 0 0 0 633.5,352.625 L920.2256,352.625 A0,0 0 0 0 920.2256,352.625 L920.2256,201.2969 L910.2256,191.2969 L633.5,191.2969 A0,0 0 0 0 633.5,191.2969" fill="#FEFFDD" style="stroke:#181818;stroke-width:0.5;"/><path d="M910.2256,191.2969 L910.2256,201.2969 L920.2256,201.2969 L910.2256,191.2969" fill="#FEFFDD" style="stroke:#181818;stroke-width:0.5;"/><text fill="#000000" font-family="sans-serif" font-size="13" lengthAdjust="spacing" textLength="260.0444" x="639.5" y="208.3638">&#1051;&#1077;&#1082;&#1089;&#1077;&#1088; &#1086;&#1090;&#1074;&#1077;&#1095;&#1072;&#1077;&#1090; &#1079;&#1072; &#1088;&#1072;&#1079;&#1073;&#1086;&#1088; &#1082;&#1072;&#1074;&#1099;&#1095;&#1077;&#1082; &#1080;</text><text fill="#000000" font-family="sans-serif" font-size="13" lengthAdjust="spacing" textLength="166.1118" x="639.5" y="223.4966">&#1092;&#1086;&#1088;&#1084;&#1080;&#1088;&#1086;&#1074;&#1072;&#1085;&#1080;&#1077; &#1090;&#1086;&#1082;&#1077;&#1085;&#1086;&#1074;.</text><text fill="#000000" font-family="sans-serif" font-size="13" lengthAdjust="spacing" textLength="4.1323" x="639.5" y="238.6294">&#160;</text><text fill="#000000" font-family="sans-serif" font-size="13" lengthAdjust="spacing" textLength="76.6733" x="639.5" y="253.7622">&#1057;&#1086;&#1089;&#1090;&#1086;&#1103;&#1085;&#1080;&#1103;:</text><text fill="#000000" font-family="sans-serif" font-size="13" lengthAdjust="spacing" textLength="120.3008" x="639.5" y="268.895">- &#1086;&#1073;&#1099;&#1095;&#1085;&#1099;&#1081; &#1088;&#1077;&#1078;&#1080;&#1084;</text><text fill="#000000" font-family="sans-serif" font-size="13" lengthAdjust="spacing" textLength="154.6987" x="639.5" y="284.0278">- '&#1086;&#1076;&#1080;&#1085;&#1072;&#1088;&#1085;&#1099;&#1077; &#1082;&#1072;&#1074;&#1099;&#1095;&#1082;&#1080;'</text><text fill="#000000" font-family="sans-serif" font-size="13" lengthAdjust="spacing" textLength="142.4541" x="639.5" y="299.1606">- "&#1076;&#1074;&#1086;&#1081;&#1085;&#1099;&#1077; &#1082;&#1072;&#1074;&#1099;&#1095;&#1082;&#1080;"</text><text fill="#000000" font-family="sans-serif" font-size="13" lengthAdjust="spacing" textLength="4.1323" x="639.5" y="314.2935">&#160;</text><text fill="#000000" font-family="sans-serif" font-size="13" lengthAdjust="spacing" textLength="265.7256" x="639.5" y="329.4263">&#1056;&#1077;&#1079;&#1091;&#1083;&#1100;&#1090;&#1072;&#1090;: &#1090;&#1086;&#1082;&#1077;&#1085;&#1099;, &#1080;&#1079; &#1082;&#1086;&#1090;&#1086;&#1088;&#1099;&#1093; &#1087;&#1072;&#1088;&#1089;&#1077;&#1088;</text><text fill="#000000" font-family="sans-serif" font-size="13" lengthAdjust="spacing" textLength="204.2739" x="639.5" y="344.5591">&#1089;&#1086;&#1073;&#1080;&#1088;&#1072;&#1077;&#1090; &#1089;&#1083;&#1086;&#1074;&#1072; &#1080; &#1087;&#1072;&#1081;&#1087;&#1083;&#1072;&#1081;&#1085;&#1099;.</text></g><g class="entity" data-entity="GMN25" data-source-line="44" data-uid="ent0026" id="entity_GMN25"><path d="M633,542.2969 L633,596.2969 L325.58,600.2969 L633,604.2969 L633,658.2266 A0,0 0 0 0 633,658.2266 L981.1201,658.2266 A0,0 0 0 0 981.1201,658.2266 L981.1201,552.2969 L971.1201,542.2969 L633,542.2969 A0,0 0 0 0 633,542.2969" fill="#FEFFDD" style="stroke:#181818;stroke-width:0.5;"/><path d="M971.1201,542.2969 L971.1201,552.2969 L981.1201,552.2969 L971.1201,542.2969" fill="#FEFFDD" style="stroke:#181818;stroke-width:0.5;"/><text fill="#000000" font-family="sans-serif" font-size="13" lengthAdjust="spacing" textLength="327.1201" x="639" y="559.3638">Expander &#1074;&#1099;&#1087;&#1086;&#1083;&#1085;&#1103;&#1077;&#1090; &#1087;&#1086;&#1076;&#1089;&#1090;&#1072;&#1085;&#1086;&#1074;&#1082;&#1080; &#1087;&#1077;&#1088;&#1077;&#1084;&#1077;&#1085;&#1085;&#1099;&#1093;.</text><text fill="#000000" font-family="sans-serif" font-size="13" lengthAdjust="spacing" textLength="4.1323" x="639" y="574.4966">&#160;</text><text fill="#000000" font-family="sans-serif" font-size="13" lengthAdjust="spacing" textLength="62.7593" x="639" y="589.6294">&#1055;&#1088;&#1072;&#1074;&#1080;&#1083;&#1072;:</text><text fill="#000000" font-family="sans-serif" font-size="13" lengthAdjust="spacing" textLength="286.6348" x="639" y="604.7622">- &#1074; &#1086;&#1076;&#1080;&#1085;&#1072;&#1088;&#1085;&#1099;&#1093; &#1082;&#1072;&#1074;&#1099;&#1095;&#1082;&#1072;&#1093; &#1087;&#1086;&#1076;&#1089;&#1090;&#1072;&#1085;&#1086;&#1074;&#1086;&#1082; &#1085;&#1077;&#1090;</text><text fill="#000000" font-family="sans-serif" font-size="13" lengthAdjust="spacing" textLength="271.5527" x="639" y="619.895">- &#1074; &#1076;&#1074;&#1086;&#1081;&#1085;&#1099;&#1093; &#1082;&#1072;&#1074;&#1099;&#1095;&#1082;&#1072;&#1093; $NAME &#1088;&#1072;&#1079;&#1088;&#1077;&#1096;&#1105;&#1085;</text><text fill="#000000" font-family="sans-serif" font-size="13" lengthAdjust="spacing" textLength="295.4009" x="639" y="635.0278">- &#1087;&#1086;&#1089;&#1083;&#1077; &#1087;&#1086;&#1076;&#1089;&#1090;&#1072;&#1085;&#1086;&#1074;&#1082;&#1080; &#1053;&#1045; &#1076;&#1077;&#1083;&#1072;&#1077;&#1084; &#1088;&#1072;&#1079;&#1073;&#1080;&#1077;&#1085;&#1080;&#1077;</text><text fill="#000000" font-family="sans-serif" font-size="13" lengthAdjust="spacing" textLength="267.7124" x="647.2646" y="650.1606">&#1085;&#1072; &#1085;&#1077;&#1089;&#1082;&#1086;&#1083;&#1100;&#1082;&#1086; &#1072;&#1088;&#1075;&#1091;&#1084;&#1077;&#1085;&#1090;&#1086;&#1074; &#1087;&#1086; &#1087;&#1088;&#1086;&#1073;&#1077;&#1083;&#1072;&#1084;</text></g><g class="entity" data-entity="GMN28" data-source-line="54" data-uid="ent0029" id="entity_GMN28"><path d="M636,750.2969 L636,881.3594 L951.6392,881.3594 L951.6392,760.2969 L941.6392,750.2969 L636,750.2969" fill="#FEFFDD" style="stroke:#181818;stroke-width:0.5;"/><path d="M941.6392,750.2969 L941.6392,760.2969 L951.6392,760.2969 L941.6392,750.2969" fill="#FEFFDD" style="stroke:#181818;stroke-width:1;"/><text fill="#000000" font-family="sans-serif" font-size="13" lengthAdjust="spacing" textLength="294.6392" x="642" y="767.3638">Executor &#1079;&#1072;&#1087;&#1091;&#1089;&#1082;&#1072;&#1077;&#1090; &#1082;&#1086;&#1084;&#1072;&#1085;&#1076;&#1099; &#1080; &#1087;&#1072;&#1081;&#1087;&#1083;&#1072;&#1081;&#1085;&#1099;.</text><text fill="#000000" font-family="sans-serif" font-size="13" lengthAdjust="spacing" textLength="4.1323" x="642" y="782.4966">&#160;</text><text fill="#000000" font-family="sans-serif" font-size="13" lengthAdjust="spacing" textLength="271.1084" x="642" y="797.6294">&#1055;&#1072;&#1081;&#1087;&#1083;&#1072;&#1081;&#1085; &#1088;&#1077;&#1072;&#1083;&#1080;&#1079;&#1091;&#1077;&#1090;&#1089;&#1103; &#1089;&#1088;&#1077;&#1076;&#1089;&#1090;&#1074;&#1072;&#1084;&#1080; &#1054;&#1057;:</text><text fill="#000000" font-family="sans-serif" font-size="13" lengthAdjust="spacing" textLength="202.814" x="642" y="812.7622">pipe(), fork(), dup2(), execvp().</text><text fill="#000000" font-family="sans-serif" font-size="13" lengthAdjust="spacing" textLength="4.1323" x="642" y="827.895">&#160;</text><text fill="#000000" font-family="sans-serif" font-size="13" lengthAdjust="spacing" textLength="278.332" x="642" y="843.0278">&#1074;&#1089;&#1090;&#1088;&#1086;&#1077;&#1085;&#1085;&#1099;&#1077; &#1082;&#1086;&#1084;&#1072;&#1085;&#1076;&#1099; &#1090;&#1086;&#1078;&#1077; &#1079;&#1072;&#1087;&#1091;&#1089;&#1082;&#1072;&#1102;&#1090;&#1089;&#1103;</text><text fill="#000000" font-family="sans-serif" font-size="13" lengthAdjust="spacing" textLength="273.019" x="642" y="858.1606">&#1074; &#1076;&#1086;&#1095;&#1077;&#1088;&#1085;&#1077;&#1084; &#1087;&#1088;&#1086;&#1094;&#1077;&#1089;&#1089;&#1077;, &#1095;&#1090;&#1086;&#1073;&#1099; &#1082;&#1086;&#1088;&#1088;&#1077;&#1082;&#1090;&#1085;&#1086;</text><text fill="#000000" font-family="sans-serif" font-size="13" lengthAdjust="spacing" textLength="157.6567" x="642" y="873.2935">&#1088;&#1072;&#1073;&#1086;&#1090;&#1072;&#1090;&#1100; &#1074; &#1087;&#1072;&#1081;&#1087;&#1083;&#1072;&#1081;&#1085;&#1077;.</text></g><!--link Shell to Tokenizer--><g class="link" data-entity-1="Shell" data-entity-2="Tokenizer" data-source-line="17" data-uid="lnk12" id="link_Shell_Tokenizer"><path d="M346.76,114.3869 C342.24,123.1669 336.94,134.1369 333,144.2969 C318.2,182.4869 307.4195,223.2872 301.4295,247.8872" fill="none" id="Shell-to-Tokenizer" style="stroke:#181818;stroke-width:1;"/><polygon fill="#181818" points="300.01,253.7169,306.0257,245.9187,301.1929,248.8588,298.2528,244.026,300.01,253.7169" style="stroke:#181818;stroke-width:1;"/><text fill="#000000" font-family="sans-serif" font-size="13" lengthAdjust="spacing" textLength="32.2651" x="334" y="157.3638">&#1074;&#1074;&#1086;&#1076;</text></g><!--link Tokenizer to Parser--><g class="link" data-entity-1="Tokenizer" data-entity-2="Parser" data-source-line="18" data-uid="lnk13" id="link_Tokenizer_Parser"><path d="M292.52,290.0669 C285.81,323.3269 272.3569,390.0154 265.6569,423.2154" fill="none" id="Tokenizer-to-Parser" style="stroke:#181818;stroke-width:1;"/><polygon fill="#181818" points="264.47,429.0969,270.1713,421.066,265.4591,424.1957,262.3294,419.4835,264.47,429.0969" style="stroke:#181818;stroke-width:1;"/><text fill="#000000" font-family="sans-serif" font-size="13" lengthAdjust="spacing" textLength="50.1401" x="274" y="395.3638">&#1090;&#1086;&#1082;&#1077;&#1085;&#1099;</text></g><!--link Parser to Expander--><g class="link" data-entity-1="Parser" data-entity-2="Expander" data-source-line="19" data-uid="lnk14" id="link_Parser_Expander"><path d="M252.95,465.3369 C247.87,478.1969 242.82,496.2869 246,512.2969 C251.07,537.7869 260.9685,559.8502 269.8285,576.9402" fill="none" id="Parser-to-Expander" style="stroke:#181818;stroke-width:1;"/><polygon fill="#181818" points="272.59,582.2669,271.9988,572.4358,270.2887,577.8279,264.8965,576.1178,272.59,582.2669" style="stroke:#181818;stroke-width:1;"/><text fill="#000000" font-family="sans-serif" font-size="13" lengthAdjust="spacing" textLength="85.0903" x="247" y="508.3638">PipelineNode</text></g><!--link Expander to Executor--><g class="link" data-entity-1="Expander" data-entity-2="Executor" data-source-line="20" data-uid="lnk15" id="link_Expander_Executor"><path d="M277.62,618.4869 C273.42,635.9269 267.37,663.7869 265,688.2969 C261.23,727.2169 263.6256,767.1998 265.7656,791.5898" fill="none" id="Expander-to-Executor" style="stroke:#181818;stroke-width:1;"/><polygon fill="#181818" points="266.29,797.5669,269.488,788.2517,265.853,792.586,261.5187,788.9509,266.29,797.5669" style="stroke:#181818;stroke-width:1;"/><text fill="#000000" font-family="sans-serif" font-size="13" lengthAdjust="spacing" textLength="82.2148" x="288.9309" y="701.3638">ExecPipeline</text><text fill="#000000" font-family="sans-serif" font-size="13" lengthAdjust="spacing" textLength="128.0767" x="266" y="716.4966">(&#1075;&#1086;&#1090;&#1086;&#1074;&#1099;&#1077; argv/env)</text></g><!--link Shell to Env--><g class="link" data-entity-1="Shell" data-entity-2="Env" data-source-line="22" data-uid="lnk16" id="link_Shell_Env"><path d="M364.8,114.3269 C402.19,187.7969 548.12,485.8069 595,750.2969 C609.97,834.7569 628.65,864.3969 595,943.2969 C589.96,955.1169 584.9209,961.5237 575.5209,969.4337" fill="none" id="Shell-to-Env" style="stroke:#181818;stroke-width:1;"/><polygon fill="#181818" points="570.93,973.2969,580.3917,970.5627,574.7557,970.0776,575.2409,964.4416,570.93,973.2969" style="stroke:#181818;stroke-width:1;"/><text fill="#000000" font-family="sans-serif" font-size="13" lengthAdjust="spacing" textLength="223.5581" x="532" y="508.3638">&#1095;&#1090;&#1077;&#1085;&#1080;&#1077;/&#1086;&#1073;&#1085;&#1086;&#1074;&#1083;&#1077;&#1085;&#1080;&#1077; &#1087;&#1077;&#1088;&#1077;&#1084;&#1077;&#1085;&#1085;&#1099;&#1093;</text></g><!--link Expander to Env--><g class="link" data-entity-1="Expander" data-entity-2="Env" data-source-line="23" data-uid="lnk17" id="link_Expander_Env"><path d="M317.86,618.3569 C344.64,633.0469 379.82,656.8569 399,688.2969 C444.29,762.5169 370.28,819.0669 431,881.2969 C480.61,932.1369 542.73,856.5569 588,911.2969 C603.74,930.3269 588.0413,952.0241 570.6113,968.8941" fill="none" id="Expander-to-Env" style="stroke:#181818;stroke-width:1;"/><polygon fill="#181818" points="566.3,973.0669,575.5489,969.6819,569.8928,969.5895,569.9851,963.9334,566.3,973.0669" style="stroke:#181818;stroke-width:1;"/><text fill="#000000" font-family="sans-serif" font-size="13" lengthAdjust="spacing" textLength="158.939" x="432" y="820.3638">&#1087;&#1086;&#1080;&#1089;&#1082; &#1079;&#1085;&#1072;&#1095;&#1077;&#1085;&#1080;&#1081; $NAME</text></g><!--link Executor to Env--><g class="link" data-entity-1="Executor" data-entity-2="Env" data-source-line="24" data-uid="lnk18" id="link_Executor_Env"><path d="M285.52,833.9869 C319.87,867.6469 393.34,939.3269 400,943.2969 C427.9,959.9369 456.5655,969.8679 484.9955,977.3079" fill="none" id="Executor-to-Env" style="stroke:#181818;stroke-width:1;"/><polygon fill="#181818" points="490.8,978.8269,483.1059,972.6787,485.9629,977.561,481.0805,980.418,490.8,978.8269" style="stroke:#181818;stroke-width:1;"/><text fill="#000000" font-family="sans-serif" font-size="13" lengthAdjust="spacing" textLength="182.7173" x="401" y="924.3638">&#1092;&#1086;&#1088;&#1084;&#1080;&#1088;&#1086;&#1074;&#1072;&#1085;&#1080;&#1077; &#1086;&#1082;&#1088;&#1091;&#1078;&#1077;&#1085;&#1080;&#1103;</text><text fill="#000000" font-family="sans-serif" font-size="13" lengthAdjust="spacing" textLength="170.3584" x="407.1794" y="939.4966">&#1076;&#1083;&#1103; &#1076;&#1086;&#1095;&#1077;&#1088;&#1085;&#1080;&#1093; &#1087;&#1088;&#1086;&#1094;&#1077;&#1089;&#1089;&#1086;&#1074;</text></g><!--link Executor to Registry--><g class="link" data-entity-1="Executor" data-entity-2="Registry" data-source-line="26" data-uid="lnk19" id="link_Executor_Registry"><path d="M226.82,824.1569 C181.38,834.7169 110.4,858.9969 78,911.2969 C66.19,930.3669 73.4535,950.979 82.8735,967.839" fill="none" id="Executor-to-Registry" style="stroke:#181818;stroke-width:1;"/><polygon fill="#181818" points="85.8,973.0769,84.9022,963.269,83.3612,968.712,77.9183,967.171,85.8,973.0769" style="stroke:#181818;stroke-width:1;"/><text fill="#000000" font-family="sans-serif" font-size="13" lengthAdjust="spacing" textLength="74.3564" x="79" y="931.8638">&#1101;&#1090;&#1086; builtin?</text></g><!--link Registry to Builtins--><g class="link" data-entity-1="Registry" data-entity-2="Builtins" data-source-line="27" data-uid="lnk20" id="link_Registry_Builtins"><path d="M97,1009.6369 C97,1030.4969 97,1059.2769 97,1080.0769" fill="none" id="Registry-to-Builtins" style="stroke:#181818;stroke-width:1;"/><polygon fill="#181818" points="97,1086.0769,101,1077.0769,97,1081.0769,93,1077.0769,97,1086.0769" style="stroke:#181818;stroke-width:1;"/><text fill="#000000" font-family="sans-serif" font-size="13" lengthAdjust="spacing" textLength="120.1865" x="98" y="1052.3638">&#1085;&#1072;&#1081;&#1090;&#1080;/&#1074;&#1099;&#1087;&#1086;&#1083;&#1085;&#1080;&#1090;&#1100;</text></g><!--link Executor to External--><g class="link" data-entity-1="Executor" data-entity-2="External" data-source-line="28" data-uid="lnk21" id="link_Executor_External"><path d="M237.82,833.9469 C199.3,858.0369 140.96,903.4469 170,943.2969 C179.72,956.6369 187.8552,963.7561 202.8452,970.6961" fill="none" id="Executor-to-External" style="stroke:#181818;stroke-width:1;"/><polygon fill="#181818" points="208.29,973.2169,201.8034,965.8058,203.7527,971.1162,198.4423,973.0655,208.29,973.2169" style="stroke:#181818;stroke-width:1;"/><text fill="#000000" font-family="sans-serif" font-size="13" lengthAdjust="spacing" textLength="60.6201" x="234.7146" y="924.3638">fork/exec</text><text fill="#000000" font-family="sans-serif" font-size="13" lengthAdjust="spacing" textLength="188.0493" x="171" y="939.4966">(&#1077;&#1089;&#1083;&#1080; &#1082;&#1086;&#1084;&#1072;&#1085;&#1076;&#1072; &#1085;&#1077;&#1080;&#1079;&#1074;&#1077;&#1089;&#1090;&#1085;&#1072;)</text></g><!--link Executor to GMN28--><g class="link" data-entity-1="Executor" data-entity-2="GMN28" data-source-line="54" data-uid="lnk30" id="link_Executor_GMN28"><path d="M279.17,797.5769 C296.58,771.1569 332.97,723.2769 378.5,704.2969 C469.16,666.5069 504.59,679.0169 599.5,704.2969 C635.23,713.8169 671.23,731.6169 702.37,750.2569" fill="none" id="Executor-GMN28" style="stroke:#181818;stroke-width:1;stroke-dasharray:7,7;"/></g><!--SRC=[VLLBRzD04BxlhrXLIBHI7nB77a20Ua02X80RS33DDhMQh2F73HI4b8P7AxLGSK0S48_-0yUjMpT9qx-m-u_uPjPEdD2YIixkpEmylczc6lbHJKbpR38JcoFRndU0lrYQdXdYS87lkKdDkUtWb8ZcXgyRNkZLvMfGRmHQwUX9j0KNeLgDF5sjgP99Szsh1AzyNPLhNgsfX6XugnjULScPk_VlpSYtGifdEBsGNbC-MLUr6WcU1XjA-szKoEBHZLIFlB2PozsHX2kl6vwkvEBYuXHgTJCA2eMxi4At_33GTUJkTBh5cGJrEXu_LbM_6OLRh2ekfB-pwTSYNpTPKLn8ORu3jGlxtcwRdZG9uMLtyStiHmbv6y2DaCsJYLIelPfu9mJNBHSMRevBbSla9S6pOp4Maech6dfceyUyx8bSIWP5_J1vv3TKpTVgOL1HOYHtHWuB6D6nC7okPysH6JgYxPv9fHTMMqjAj-RAQG8jIc07TYaLQT8bFEZYY6UcNmXHEM1eupfW4HAr7wVoO4_SOfd3xXI6iTt9VPp9QmzlFrWHetnBuJyWqJPSPmnl0d3pg835jkrxS-ASs8Fd6jtTjmVKv4FoZHTbRkmdYBOHdzfxCbR1FWNyJBZ8buxsMsAa8hkY6QWQ563EO9ijCOXKN9_ZTUp-L2Lv5-3LMX1kB2aeYGDaWoTPCO5KsJ4D98rX1eWIphT3aK2C3Y8CdrzTZsImLXeNymFcFRX2lP9PfNSxS9VQ3Y4TI-x9Kr0t99CUBiYOqGSLcRWIut7paNXH27C8IqffQ0ySwCjYWQZeiZzG3owv5qxWO03TTMfkd8dkDXkavGnw9hiEgndOq1YSNMenWy1_uFCKRFVjFiB7jZCv6lEI46CaERisDI5r7A8wQ0GJt-KQ7JICFfShYOGBuXFVFl_2vw9GkY89zcdmHyjdrENb5W0qZ3nTZncjE9-PdelppxGGihyvhmHb8056DP7Js559PMHYL-Dqc27HIhkfaxifWNkP2nw-l4aeDRjhlvfpUdj1TDEeNrdDJ_ED_ASC6ueQzrfMB0XiJYh1fRJDpGuMwLToOKUWTJ3-pyEXYdNQpJqF_iD5lkz78qSjNspfOWfA4sRthg8R94mANIl7DAJSV70510xGEQnmS2Iyx-7nbpbS5WtisDcvUHvq-griDcxGByrygp4xHr4IUiVbvHtWEhwS8KDnGlA9OkmNbu5mh8wt724_jUNIURUxUJZTPBGvxHwlbA5WfheyC34jBUcmdq30fECf-0i0]--></g></svg>