<svg xmlns="http://www.w3.org/2000/svg" xmlns:xlink="http://www.w3.org/1999/xlink" contentStyleType="text/css" data-diagram-type="DESCRIPTION" height="930px" preserveAspectRatio="none" style="width:1074px;height:930px;background:#FFFFFF;" version="1.1" viewBox="0 0 1074 930" width="1074px" zoomAndPan="magnify"><title>&#1076;&#1080;&#1072;&#1075;&#1088;&#1072;&#1084;&#1084;&#1072; &#1082;&#1086;&#1084;&#1087;&#1086;&#1085;&#1077;&#1085;&#1090;&#1086;&#1074;</title><defs/><g><g class="title" data-source-line="1"><text fill="#000000" font-family="sans-serif" font-size="14" font-weight="bold" lengthAdjust="spacing" textLength="199.8418" x="430.342" y="22.9951">&#1076;&#1080;&#1072;&#1075;&#1088;&#1072;&#1084;&#1084;&#1072; &#1082;&#1086;&#1084;&#1087;&#1086;&#1085;&#1077;&#1085;&#1090;&#1086;&#1074;</text></g><!--cluster ?????????? CLI--><g class="cluster" data-entity=".......... CLI" data-source-line="5" data-uid="ent0002" id="cluster_.......... CLI"><path d="M8.5,43.2969 L142.6025,43.2969 A3.75,3.75 0 0 1 145.1025,45.7969 L152.1025,65.5938 L614.5,65.5938 A2.5,2.5 0 0 1 617,68.0938 L617,920.7969 A2.5,2.5 0 0 1 614.5,923.2969 L8.5,923.2969 A2.5,2.5 0 0 1 6,920.7969 L6,45.7969 A2.5,2.5 0 0 1 8.5,43.2969" fill="none" style="stroke:#000000;stroke-width:1.5;"/><line style="stroke:#000000;stroke-width:1.5;" x1="6" x2="152.1025" y1="65.5938" y2="65.5938"/><text fill="#000000" font-family="sans-serif" font-size="14" font-weight="bold" lengthAdjust="spacing" textLength="133.1025" x="10" y="58.292">&#1055;&#1088;&#1080;&#1083;&#1086;&#1078;&#1077;&#1085;&#1080;&#1077; CLI</text></g><!--entity CLI--><g class="entity" data-entity="CLI" data-source-line="6" data-uid="ent0003" id="entity_CLI"><rect fill="#F1F1F1" height="36.2969" rx="2.5" ry="2.5" style="stroke:#181818;stroke-width:0.5;" width="41.7041" x="260" y="78.2969"/><text fill="#000000" font-family="sans-serif" font-size="14" lengthAdjust="spacing" textLength="21.7041" x="270" y="101.292">CLI</text></g><!--entity Expander--><g class="entity" data-entity="Expander" data-source-line="7" data-uid="ent0004" id="entity_Expander"><rect fill="#F1F1F1" height="36.2969" rx="2.5" ry="2.5" style="stroke:#181818;stroke-width:0.5;" width="86.7256" x="143.5" y="191.2969"/><text fill="#000000" font-family="sans-serif" font-size="14" lengthAdjust="spacing" textLength="66.7256" x="153.5" y="214.292">Expander</text></g><!--entity Lexer--><g class="entity" data-entity="Lexer" data-source-line="8" data-uid="ent0005" id="entity_Lexer"><rect fill="#F1F1F1" height="36.2969" rx="2.5" ry="2.5" style="stroke:#181818;stroke-width:0.5;" width="88.3184" x="170" y="336.7969"/><text fill="#000000" font-family="sans-serif" font-size="14" lengthAdjust="spacing" textLength="68.3184" x="180" y="359.792">Tokenizer</text></g><!--entity Parser--><g class="entity" data-entity="Parser" data-source-line="9" data-uid="ent0006" id="entity_Parser"><rect fill="#F1F1F1" height="36.2969" rx="2.5" ry="2.5" style="stroke:#181818;stroke-width:0.5;" width="64.4404" x="182" y="467.2969"/><text fill="#000000" font-family="sans-serif" font-size="14" lengthAdjust="spacing" textLength="44.4404" x="192" y="490.292">Parser</text></g><!--entity Executor--><g class="entity" data-entity="Executor" data-source-line="10" data-uid="ent0007" id="entity_Executor"><rect fill="#F1F1F1" height="36.2969" rx="2.5" ry="2.5" style="stroke:#181818;stroke-width:0.5;" width="82.125" x="173" y="605.2969"/><text fill="#000000" font-family="sans-serif" font-size="14" lengthAdjust="spacing" textLength="62.125" x="183" y="628.292">Executor</text></g><!--entity Env--><g class="entity" data-entity="Env" data-source-line="11" data-uid="ent0008" id="entity_Env"><rect fill="#F1F1F1" height="36.2969" rx="2.5" ry="2.5" style="stroke:#181818;stroke-width:0.5;" width="109.7012" x="491" y="758.2969"/><text fill="#000000" font-family="sans-serif" font-size="14" lengthAdjust="spacing" textLength="89.7012" x="501" y="781.292">Environment</text></g><!--entity Registry--><g class="entity" data-entity="Registry" data-source-line="12" data-uid="ent0009" id="entity_Registry"><rect fill="#F1F1F1" height="36.2969" rx="2.5" ry="2.5" style="stroke:#181818;stroke-width:0.5;" width="149.8965" x="22" y="758.2969"/><text fill="#000000" font-family="sans-serif" font-size="14" lengthAdjust="spacing" textLength="129.8965" x="32" y="781.292">CommandRegistry</text></g><!--entity Builtins--><g class="entity" data-entity="Builtins" data-source-line="13" data-uid="ent0010" id="entity_Builtins"><rect fill="#F1F1F1" height="36.2969" rx="2.5" ry="2.5" style="stroke:#181818;stroke-width:0.5;" width="71.8027" x="61" y="871.2969"/><text fill="#000000" font-family="sans-serif" font-size="14" lengthAdjust="spacing" textLength="51.8027" x="71" y="894.292">Builtins</text></g><!--entity External--><g class="entity" data-entity="External" data-source-line="14" data-uid="ent0011" id="entity_External"><rect fill="#F1F1F1" height="36.2969" rx="2.5" ry="2.5" style="stroke:#181818;stroke-width:0.5;" width="217.9619" x="207" y="758.2969"/><text fill="#000000" font-family="sans-serif" font-size="14" lengthAdjust="spacing" textLength="197.9619" x="217" y="781.292">&#1047;&#1072;&#1087;&#1091;&#1089;&#1082; &#1074;&#1085;&#1077;&#1096;&#1085;&#1080;&#1093; &#1087;&#1088;&#1086;&#1075;&#1088;&#1072;&#1084;&#1084;</text></g><g class="entity" data-entity="GMN22" data-source-line="29" data-uid="ent0023" id="entity_GMN22"><path d="M632.5,319.2969 L632.5,350.7969 L258.1,354.7969 L632.5,358.7969 L632.5,389.8281 A0,0 0 0 0 632.5,389.8281 L1067.5259,389.8281 A0,0 0 0 0 1067.5259,389.8281 L1067.5259,329.2969 L1057.5259,319.2969 L632.5,319.2969 A0,0 0 0 0 632.5,319.2969" fill="#FEFFDD" style="stroke:#181818;stroke-width:0.5;"/><path d="M1057.5259,319.2969 L1057.5259,329.2969 L1067.5259,329.2969 L1057.5259,319.2969" fill="#FEFFDD" style="stroke:#181818;stroke-width:0.5;"/><text fill="#000000" font-family="sans-serif" font-size="13" lengthAdjust="spacing" textLength="262.8184" x="638.5" y="336.3638">Lexer &#1087;&#1086;&#1085;&#1080;&#1084;&#1072;&#1077;&#1090; &#1082;&#1072;&#1074;&#1099;&#1095;&#1082;&#1080; &#1080; &#1086;&#1087;&#1077;&#1088;&#1072;&#1090;&#1086;&#1088; |.</text><text fill="#000000" font-family="sans-serif" font-size="13" lengthAdjust="spacing" textLength="4.1323" x="638.5" y="351.4966">&#160;</text><text fill="#000000" font-family="sans-serif" font-size="13" lengthAdjust="spacing" textLength="373.9087" x="638.5" y="366.6294">&#1044;&#1086;&#1087;&#1086;&#1083;&#1085;&#1080;&#1090;&#1077;&#1083;&#1100;&#1085;&#1086;: Lexer &#1087;&#1086;&#1085;&#1080;&#1084;&#1072;&#1077;&#1090; &#1089;&#1083;&#1091;&#1078;&#1077;&#1073;&#1085;&#1099;&#1077; &#1084;&#1072;&#1088;&#1082;&#1077;&#1088;&#1099;,</text><text fill="#000000" font-family="sans-serif" font-size="13" lengthAdjust="spacing" textLength="414.0259" x="638.5" y="381.7622">&#1082;&#1086;&#1090;&#1086;&#1088;&#1099;&#1077; &#1086;&#1079;&#1085;&#1072;&#1095;&#1072;&#1102;&#1090; "&#1087;&#1088;&#1086;&#1073;&#1077;&#1083;&#1099; &#1074;&#1085;&#1091;&#1090;&#1088;&#1080; &#8212; &#1095;&#1072;&#1089;&#1090;&#1100; &#1086;&#1076;&#1085;&#1086;&#1075;&#1086; &#1089;&#1083;&#1086;&#1074;&#1072;".</text></g><g class="entity" data-entity="GMN25" data-source-line="36" data-uid="ent0026" id="entity_GMN25"><path d="M633,580.2969 L633,619.2969 L255.02,623.2969 L633,627.2969 L633,665.9609 A0,0 0 0 0 633,665.9609 L1049.4336,665.9609 A0,0 0 0 0 1049.4336,665.9609 L1049.4336,590.2969 L1039.4336,580.2969 L633,580.2969 A0,0 0 0 0 633,580.2969" fill="#FEFFDD" style="stroke:#181818;stroke-width:0.5;"/><path d="M1039.4336,580.2969 L1039.4336,590.2969 L1049.4336,590.2969 L1039.4336,580.2969" fill="#FEFFDD" style="stroke:#181818;stroke-width:0.5;"/><text fill="#000000" font-family="sans-serif" font-size="13" lengthAdjust="spacing" textLength="271.1084" x="639" y="597.3638">&#1055;&#1072;&#1081;&#1087;&#1083;&#1072;&#1081;&#1085; &#1088;&#1077;&#1072;&#1083;&#1080;&#1079;&#1091;&#1077;&#1090;&#1089;&#1103; &#1089;&#1088;&#1077;&#1076;&#1089;&#1090;&#1074;&#1072;&#1084;&#1080; &#1054;&#1057;:</text><text fill="#000000" font-family="sans-serif" font-size="13" lengthAdjust="spacing" textLength="268.6455" x="639" y="612.4966">pipe(), fork(), dup2(), execvp(), waitpid().</text><text fill="#000000" font-family="sans-serif" font-size="13" lengthAdjust="spacing" textLength="4.1323" x="639" y="627.6294">&#160;</text><text fill="#000000" font-family="sans-serif" font-size="13" lengthAdjust="spacing" textLength="395.4336" x="639" y="642.7622">&#1042;&#1089;&#1090;&#1088;&#1086;&#1077;&#1085;&#1085;&#1099;&#1077; &#1082;&#1086;&#1084;&#1072;&#1085;&#1076;&#1099; &#1079;&#1072;&#1087;&#1091;&#1089;&#1082;&#1072;&#1102;&#1090;&#1089;&#1103; &#1074; &#1076;&#1086;&#1095;&#1077;&#1088;&#1085;&#1077;&#1084; &#1087;&#1088;&#1086;&#1094;&#1077;&#1089;&#1089;&#1077;,</text><text fill="#000000" font-family="sans-serif" font-size="13" lengthAdjust="spacing" textLength="279.5952" x="639" y="657.895">&#1095;&#1090;&#1086;&#1073;&#1099; &#1082;&#1086;&#1088;&#1088;&#1077;&#1082;&#1090;&#1085;&#1086; &#1088;&#1072;&#1073;&#1086;&#1090;&#1072;&#1090;&#1100; &#1074; &#1087;&#1072;&#1081;&#1087;&#1083;&#1072;&#1081;&#1085;&#1077;.</text></g><!--link CLI to Expander--><g class="link" data-entity-1="CLI" data-entity-2="Expander" data-source-line="16" data-uid="lnk12" id="link_CLI_Expander"><path d="M260,100.7869 C236.82,105.8869 200.59,117.8169 184,144.2969 C175.26,158.2469 176.128,171.6479 179.678,185.3779" fill="none" id="CLI-to-Expander" style="stroke:#181818;stroke-width:1;"/><polygon fill="#181818" points="181.18,191.1869,182.7997,181.4721,179.9284,186.3461,175.0544,183.4747,181.18,191.1869" style="stroke:#181818;stroke-width:1;"/><text fill="#000000" font-family="sans-serif" font-size="13" lengthAdjust="spacing" textLength="181.2065" x="185" y="157.3638">&#1080;&#1089;&#1093;&#1086;&#1076;&#1085;&#1072;&#1103; &#1089;&#1090;&#1088;&#1086;&#1082;&#1072; (raw line)</text></g><!--link Expander to Lexer--><g class="link" data-entity-1="Expander" data-entity-2="Lexer" data-source-line="17" data-uid="lnk13" id="link_Expander_Lexer"><path d="M164.3,227.4669 C155.59,235.4669 146.63,245.7669 142,257.2969 C136.7,270.4969 136.2,276.3069 142,289.2969 C150.9,309.2169 164.4224,322.085 180.4024,333.325" fill="none" id="Expander-to-Lexer" style="stroke:#181818;stroke-width:1;"/><polygon fill="#181818" points="185.31,336.7769,180.2499,328.3273,181.2203,333.9003,175.6474,334.8708,185.31,336.7769" style="stroke:#181818;stroke-width:1;"/><text fill="#000000" font-family="sans-serif" font-size="13" lengthAdjust="spacing" textLength="182.9648" x="143" y="270.3638">&#1089;&#1090;&#1088;&#1086;&#1082;&#1072; &#1087;&#1086;&#1089;&#1083;&#1077; &#1087;&#1086;&#1076;&#1089;&#1090;&#1072;&#1085;&#1086;&#1074;&#1086;&#1082;</text><text fill="#000000" font-family="sans-serif" font-size="13" lengthAdjust="spacing" textLength="157.187" x="155.8889" y="285.4966">+ &#1089;&#1083;&#1091;&#1078;&#1077;&#1073;&#1085;&#1099;&#1077; &#1084;&#1072;&#1088;&#1082;&#1077;&#1088;&#1099;</text><text fill="#000000" font-family="sans-serif" font-size="13" lengthAdjust="spacing" textLength="121.3989" x="40.351" y="326.9632">&#1077;&#1076;&#1080;&#1085;&#1099;&#1081; &#1072;&#1088;&#1075;&#1091;&#1084;&#1077;&#1085;&#1090;</text></g><!--link Lexer to Parser--><g class="link" data-entity-1="Lexer" data-entity-2="Parser" data-source-line="18" data-uid="lnk14" id="link_Lexer_Parser"><path d="M214,372.8569 C214,397.4369 214,436.5469 214,461.1669" fill="none" id="Lexer-to-Parser" style="stroke:#181818;stroke-width:1;"/><polygon fill="#181818" points="214,467.1669,218,458.1669,214,462.1669,210,458.1669,214,467.1669" style="stroke:#181818;stroke-width:1;"/><text fill="#000000" font-family="sans-serif" font-size="13" lengthAdjust="spacing" textLength="50.1401" x="215" y="433.3638">&#1090;&#1086;&#1082;&#1077;&#1085;&#1099;</text></g><!--link Parser to Executor--><g class="link" data-entity-1="Parser" data-entity-2="Executor" data-source-line="19" data-uid="lnk15" id="link_Parser_Executor"><path d="M214,503.5169 C214,529.6769 214,573.1369 214,599.2169" fill="none" id="Parser-to-Executor" style="stroke:#181818;stroke-width:1;"/><polygon fill="#181818" points="214,605.2169,218,596.2169,214,600.2169,210,596.2169,214,605.2169" style="stroke:#181818;stroke-width:1;"/><text fill="#000000" font-family="sans-serif" font-size="13" lengthAdjust="spacing" textLength="124.1919" x="215" y="546.3638">AST / Exec-&#1084;&#1086;&#1076;&#1077;&#1083;&#1100;</text></g><!--link CLI to Env--><g class="link" data-entity-1="CLI" data-entity-2="Env" data-source-line="20" data-uid="lnk16" id="link_CLI_Env"><path d="M302.38,104.5069 C322.06,111.9869 351.14,125.2769 371,144.2969 C490.82,259.0069 502.29,311.0569 558,467.2969 C597.35,577.6569 640.96,620.5269 595,728.2969 C589.96,740.1169 584.9209,746.5237 575.5209,754.4337" fill="none" id="CLI-to-Env" style="stroke:#181818;stroke-width:1;"/><polygon fill="#181818" points="570.93,758.2969,580.3917,755.5627,574.7557,755.0776,575.2409,749.4416,570.93,758.2969" style="stroke:#181818;stroke-width:1;"/><text fill="#000000" font-family="sans-serif" font-size="13" lengthAdjust="spacing" textLength="223.5581" x="547" y="433.3638">&#1095;&#1090;&#1077;&#1085;&#1080;&#1077;/&#1086;&#1073;&#1085;&#1086;&#1074;&#1083;&#1077;&#1085;&#1080;&#1077; &#1087;&#1077;&#1088;&#1077;&#1084;&#1077;&#1085;&#1085;&#1099;&#1093;</text></g><!--link Expander to Env--><g class="link" data-entity-1="Expander" data-entity-2="Env" data-source-line="21" data-uid="lnk17" id="link_Expander_Env"><path d="M230.65,212.1069 C263.53,215.9969 306.78,227.0269 330,257.2969 C378.77,320.8669 308.09,363.7969 340,437.2969 C403.47,583.4869 528.61,548.4069 588,696.2969 C593.3,709.4969 593.07,715.0069 588,728.2969 C583.63,739.7469 579.3239,745.9759 571.0539,754.0859" fill="none" id="Expander-to-Env" style="stroke:#181818;stroke-width:1;"/><polygon fill="#181818" points="566.77,758.2869,575.9965,754.8413,570.3399,754.786,570.3952,749.1295,566.77,758.2869" style="stroke:#181818;stroke-width:1;"/><text fill="#000000" font-family="sans-serif" font-size="13" lengthAdjust="spacing" textLength="167.2354" x="382" y="489.8638">&#1095;&#1090;&#1077;&#1085;&#1080;&#1077; &#1079;&#1085;&#1072;&#1095;&#1077;&#1085;&#1080;&#1081; $NAME</text></g><!--link Executor to Env--><g class="link" data-entity-1="Executor" data-entity-2="Env" data-source-line="22" data-uid="lnk18" id="link_Executor_Env"><path d="M255.12,640.3469 C286.24,653.3569 329.37,673.2569 364,696.2969 C381.82,708.1569 381.41,717.6769 400,728.2969 C428.09,744.3469 456.6128,754.2003 484.9128,761.7503" fill="none" id="Executor-to-Env" style="stroke:#181818;stroke-width:1;"/><polygon fill="#181818" points="490.71,763.2969,483.0452,757.1121,485.879,762.008,480.9831,764.8418,490.71,763.2969" style="stroke:#181818;stroke-width:1;"/><text fill="#000000" font-family="sans-serif" font-size="13" lengthAdjust="spacing" textLength="182.7173" x="401" y="709.3638">&#1092;&#1086;&#1088;&#1084;&#1080;&#1088;&#1086;&#1074;&#1072;&#1085;&#1080;&#1077; &#1086;&#1082;&#1088;&#1091;&#1078;&#1077;&#1085;&#1080;&#1103;</text><text fill="#000000" font-family="sans-serif" font-size="13" lengthAdjust="spacing" textLength="170.3584" x="407.1794" y="724.4966">&#1076;&#1083;&#1103; &#1076;&#1086;&#1095;&#1077;&#1088;&#1085;&#1080;&#1093; &#1087;&#1088;&#1086;&#1094;&#1077;&#1089;&#1089;&#1086;&#1074;</text></g><!--link Executor to Registry--><g class="link" data-entity-1="Executor" data-entity-2="Registry" data-source-line="24" data-uid="lnk19" id="link_Executor_Registry"><path d="M172.99,633.9269 C141.19,643.7869 99.23,662.5869 79,696.2969 C67.49,715.4769 74.382,736.0205 83.412,752.8405" fill="none" id="Executor-to-Registry" style="stroke:#181818;stroke-width:1;"/><polygon fill="#181818" points="86.25,758.1269,85.5172,748.3053,83.885,753.7216,78.4687,752.0894,86.25,758.1269" style="stroke:#181818;stroke-width:1;"/><text fill="#000000" font-family="sans-serif" font-size="13" lengthAdjust="spacing" textLength="74.3564" x="80" y="716.8638">&#1101;&#1090;&#1086; builtin?</text></g><!--link Registry to Builtins--><g class="link" data-entity-1="Registry" data-entity-2="Builtins" data-source-line="25" data-uid="lnk20" id="link_Registry_Builtins"><path d="M97,794.6369 C97,815.4969 97,844.2769 97,865.0769" fill="none" id="Registry-to-Builtins" style="stroke:#181818;stroke-width:1;"/><polygon fill="#181818" points="97,871.0769,101,862.0769,97,866.0769,93,862.0769,97,871.0769" style="stroke:#181818;stroke-width:1;"/><text fill="#000000" font-family="sans-serif" font-size="13" lengthAdjust="spacing" textLength="120.1865" x="98" y="837.3638">&#1085;&#1072;&#1081;&#1090;&#1080;/&#1074;&#1099;&#1087;&#1086;&#1083;&#1085;&#1080;&#1090;&#1100;</text></g><!--link Executor to External--><g class="link" data-entity-1="Executor" data-entity-2="External" data-source-line="26" data-uid="lnk21" id="link_Executor_External"><path d="M196.83,641.3569 C177.14,663.0269 150.03,700.8869 170,728.2969 C179.72,741.6369 187.8552,748.7561 202.8452,755.6961" fill="none" id="Executor-to-External" style="stroke:#181818;stroke-width:1;"/><polygon fill="#181818" points="208.29,758.2169,201.8034,750.8058,203.7527,756.1162,198.4423,758.0655,208.29,758.2169" style="stroke:#181818;stroke-width:1;"/><text fill="#000000" font-family="sans-serif" font-size="13" lengthAdjust="spacing" textLength="60.6201" x="234.7146" y="709.3638">fork/exec</text><text fill="#000000" font-family="sans-serif" font-size="13" lengthAdjust="spacing" textLength="188.0493" x="171" y="724.4966">(&#1077;&#1089;&#1083;&#1080; &#1082;&#1086;&#1084;&#1072;&#1085;&#1076;&#1072; &#1085;&#1077;&#1080;&#1079;&#1074;&#1077;&#1089;&#1090;&#1085;&#1072;)</text></g><!--SRC=[XLJDJjj04BxlKwoY7X8LYDGZXrQqub29LbNXLdfm4nEi96lBCG7w8uLGIgNG8bL8lHNr3HoJ59EGy0hhL-YJz9jPsoHKLHKftjsP_MRc-sOsS8A6BVL0nphK5qa7_zVuXLAFz1IB6_nFz51FaYvMaMZL7ULPljMK5RVfkSfMmNgm3mZVhWIMgZNi6PVMjbLrTnrLarjMesKBuLcLkbMpPK6V8rIiny3yHUXO3-MJjQS5-Kv8-Gghrz9gqGbjL_SyIrLjdy-o3HastBgjdBUfPStUCySlBB-Ldfcb0R4hEu6RWPWD6rJRyLtLH2d6fjgSWzji8j1Bk-Qq0d-VJTc6x8ztd4RWg1ORiWqPz7UGU9CS9WTw97L4z2MVgSJaIEAyWvfpejDa0jjNLaDy45InN5nyc5SfboKk7YH7k3K0I9YSIcox33E2JaNVsfKDHzabaTyX02O3j-USIKwaDGRPhEo0hCXaGjgIpwQwByaXEMHT-j2zHyxe282CK4adwK6-8NSC6QyacovmuzhqIK6Os9I5eP_Iw78AvD0JwQcfqmW1bvNr3LdcWqL0KRb3978omubg4z8niDAMASEjdsO_pli8fI5FR3aXYfWSpPFpDvBKbypkSNfm9UyzNtcsAlByPgvz18aTWCVCQyJyCGGg13-7MKidfviALOmX6JvJmiQDsKP8Fk7e08JJQCt7obgD0duXzkGRqsEFH6uYlwppg55GWBw2RrpM4QGXXSSShmiQvoj9Mmwtjbo_NePWbKrLf6nm9SwcdoeRKD_G4n23eeZpxLAaaX3A3J3uJcqxaEvMEdv6-_JTY1bZc7G9CAIaGCA8y6DYo-WKKdL9HxvV4aAVyN6Ujsa1KdXP_WFvl-sw8AWQ4yIOfxdOOV8L48LqBFiShiT3Y_cbkOdbxywPP4yQf1EPpY5c698mMzm2XILXgweaHkxoahyr-fpqGG5Z_auaDsb8XEjBb81g48JdcmncE2D-A43N3_rpMNYEPnTB2omQVQixtWFwadvjZrQxbXDuJhLO8ZQ_vTEV3W9LFoCjrNfv-rePEZW77SttB8RfRiyE5mHF47WZd17pIucFk46caX-vFbCV6kuYac-E0psy9UuF]--></g></svg>